<svg xmlns="http://www.w3.org/2000/svg" width="30" height="30" viewBox="0 0 30 30">
  <g id="aadhar-icon" transform="translate(-1148 -1270)">
    <rect id="Rectangle_7175" data-name="Rectangle 7175" width="30" height="30" transform="translate(1148 1270)" fill="#fff" opacity="0"/>
    <g id="Group_41039" data-name="Group 41039" transform="translate(1156.179 1252.554)">
      <path id="Path_41138" data-name="Path 41138" d="M19.346,57.3H18.274a8.206,8.206,0,0,0-.154-1.092c-.045-.166-.245-.289-.375-.432-.137.176-.348.335-.394.532a4.379,4.379,0,0,0-.017.95h-1a8.6,8.6,0,0,0-.172-1.23,1.206,1.206,0,0,0-1.577-.878,4.421,4.421,0,0,0-2.428,1.5,2.049,2.049,0,0,1-2.08.6c1.428-1.515,2.766-3.019,4.9-3.3a1.854,1.854,0,0,1,1.7.759c.239.294.511.755.92.491.453-.292.1-.74-.09-1.067a2.783,2.783,0,0,0-3.456-1.033,10.84,10.84,0,0,0-4.066,2.811c-.355.352-.647.767-1,1.12a1.058,1.058,0,0,1-.562.268,7.7,7.7,0,0,1-1.032.012c.372-.471.68-.892,1.02-1.286a12.143,12.143,0,0,1,5.044-3.809,4.425,4.425,0,0,1,3.748.093,4.236,4.236,0,0,1,1.97,3.126A15.9,15.9,0,0,1,19.346,57.3Z" transform="translate(-10.247 -18.579)" fill="#818fa1"/>
      <path id="Path_41139" data-name="Path 41139" d="M22.546,51.886h-.961c-.141-1-.2-1.97-.424-2.9a4.647,4.647,0,0,0-5.31-3.724,9.971,9.971,0,0,0-5.14,2.39c-.417.332-.812.7-1.248,1-.145.1-.386.066-.583.093.022-.206-.036-.495.078-.606a26.414,26.414,0,0,1,2.393-2.176,8.589,8.589,0,0,1,4.862-1.824,5.816,5.816,0,0,1,5.948,4.24A9.732,9.732,0,0,1,22.546,51.886Z" transform="translate(-11.299 -13.146)" fill="#818fa1"/>
      <path id="Path_41140" data-name="Path 41140" d="M11.736,40.675a8.822,8.822,0,0,1,4.143-2.881c3.191-1,6.1-.535,8.5,1.953a8.211,8.211,0,0,1,2.139,4.62,20.192,20.192,0,0,1,.143,2.028c.015.324-.065.676-.464.664s-.446-.354-.448-.683a9.225,9.225,0,0,0-2.052-6A6.04,6.04,0,0,0,19.5,38.232a10.393,10.393,0,0,0-7.553,2.382c-.052.039-.1.081-.154.119A.594.594,0,0,1,11.736,40.675Z" transform="translate(-13.307 -8.342)" fill="#818fa1"/>
      <path id="Path_41141" data-name="Path 41141" d="M50.966,38.346a10.011,10.011,0,0,1,6.8,9.441H55.79A10.763,10.763,0,0,0,50.966,38.346Z" transform="translate(-40.907 -9.076)" fill="#818fa1"/>
      <path id="Path_41142" data-name="Path 41142" d="M36.231,27.825H32.49c.143-1.131,1.162-1.631,1.853-2.379C35.871,26.716,36.107,27.016,36.231,27.825Z" transform="translate(-27.908)" fill="#818fa1"/>
      <path id="Path_41143" data-name="Path 41143" d="M14.019,34.35c-.433-1.027.152-1.973.412-2.975.988.32,2.131.238,2.84,1.151Z" transform="translate(-14.804 -4.171)" fill="#818fa1"/>
      <path id="Path_41144" data-name="Path 41144" d="M-1.126,46.491c1.006-.214,1.985-.839,3.053-.389L.042,49.255C-.865,48.606-.814,47.461-1.126,46.491Z" transform="translate(-4.258 -14.42)" fill="#818fa1"/>
      <path id="Path_41145" data-name="Path 41145" d="M71.509,46.495c-.326.959-.26,2.1-1.174,2.764L68.447,46.1C69.516,45.655,70.5,46.277,71.509,46.495Z" transform="translate(-53.205 -14.421)" fill="#818fa1"/>
      <path id="Path_41146" data-name="Path 41146" d="M55.543,34.335l-3.235-1.83c.677-.906,1.831-.817,2.824-1.151C55.394,32.342,55.956,33.3,55.543,34.335Z" transform="translate(-41.851 -4.157)" fill="#818fa1"/>
      <path id="Path_41147" data-name="Path 41147" d="M78.933,65.86H76.622l-.159-1.812C77.622,64.17,78.191,65.061,78.933,65.86Z" transform="translate(-58.844 -27.158)" fill="#818fa1"/>
      <path id="Path_41148" data-name="Path 41148" d="M-4.7,64.047l-.16,1.816H-7.179C-6.428,65.1-5.869,64.217-4.7,64.047Z" transform="translate(0 -27.157)" fill="#818fa1"/>
      <path id="Path_41149" data-name="Path 41149" d="M25.687,67.631a9.052,9.052,0,0,1,1.274-.822,1.118,1.118,0,0,1,.927.01c.213.145.24.562.363.9h-2.5Z" transform="translate(-23.122 -29.033)" fill="#818fa1"/>
      <path id="Path_41150" data-name="Path 41150" d="M5.733,61.464l-.939.875c-.1-.109-.307-.262-.284-.318a6.3,6.3,0,0,1,.535-.984.352.352,0,0,1,.338-.029C5.5,61.082,5.566,61.235,5.733,61.464Z" transform="translate(-8.223 -24.999)" fill="#818fa1"/>
    </g>
  </g>
</svg>
