<svg xmlns="http://www.w3.org/2000/svg" width="60" height="60" viewBox="0 0 60 60">
  <g id="accounts-icon" transform="translate(-3027 -1259)">
    <rect id="Rectangle_7176" data-name="Rectangle 7176" width="60" height="60" transform="translate(3027 1259)" fill="#fff" opacity="0"/>
    <g id="Group_41045" data-name="Group 41045" transform="translate(2231.006 903.007)">
      <path id="Path_56353" data-name="Path 56353" d="M834.764,373.012v7.263h.9q4.367,0,8.733,0a2.74,2.74,0,0,1,3.013,2.987q.008,10.6,0,21.2a2.73,2.73,0,0,1-2.965,2.949c-5.031.007-10.062-.061-15.092.032-2.139.04-3.776-.768-3.672-3.633H805.716c-1.561,0-1.721-.165-1.721-1.757q0-16.491,0-32.982c0-3.259,1.822-5.076,5.089-5.076q13.947,0,27.895,0c3.156,0,5,1.843,5.006,4.989q0,1.314,0,2.628c0,1.178-.213,1.4-1.365,1.4C838.7,373.015,836.784,373.012,834.764,373.012Zm-1.333-7.193h-.691q-11.867,0-23.733,0c-2.22,0-3.186.97-3.187,3.2q0,16.02,0,32.04c0,.3.024.592.036.868H825.7v-.984q0-8.815,0-17.63a2.752,2.752,0,0,1,3.051-3.032c1.375,0,2.751,0,4.208,0,0-.4,0-.7,0-1.007-.005-3.306-.051-6.612.006-9.916A30.962,30.962,0,0,1,833.432,365.819Zm-5.9,28q0,5.21,0,10.421c0,1.173.166,1.344,1.315,1.345q7.71.006,15.42,0c1.152,0,1.321-.172,1.321-1.339q0-10.379,0-20.757c0-1.228-.155-1.386-1.358-1.387q-7.667,0-15.335,0c-1.208,0-1.362.158-1.363,1.381Q827.525,388.651,827.529,393.819Zm12.625-22.614c0-.982.025-1.885-.006-2.785a2.6,2.6,0,0,0-2.331-2.577,2.542,2.542,0,0,0-2.969,2.132,22.7,22.7,0,0,0-.03,3.23Z" transform="translate(0 0)" fill="#dabc64"/>
      <path id="Path_56354" data-name="Path 56354" d="M846.2,413.727q-4.193,0-8.386,0a1.6,1.6,0,0,1-.824-.085c-.288-.2-.681-.579-.648-.831.042-.322.443-.618.733-.877.1-.087.327-.028.5-.028q8.64,0,17.28,0c.2,0,.459-.062.578.039.274.232.651.538.663.828s-.32.667-.6.857a1.776,1.776,0,0,1-.905.1Q850.391,413.733,846.2,413.727Z" transform="translate(-26.858 -39.768)" fill="#dabc64"/>
      <path id="Path_56355" data-name="Path 56355" d="M846.149,440.611c-2.906,0-5.812.016-8.717-.02a1.5,1.5,0,0,1-.969-.477.855.855,0,0,1,.045-.825,1.217,1.217,0,0,1,.847-.4c5.953-.022,11.9-.015,17.857-.016.562,0,.933.225.949.828.018.643-.348.906-.957.906Q850.677,440.609,846.149,440.611Z" transform="translate(-26.89 -62.182)" fill="#dabc64"/>
      <path id="Path_56356" data-name="Path 56356" d="M843.376,467.054c-2,0-4.008-.008-6.011.005-.64,0-1.181-.171-1.206-.876-.027-.777.564-.953,1.22-.953q5.969,0,11.938,0c.64,0,1.243.121,1.235.927s-.6.9-1.25.9C847.327,467.049,845.351,467.054,843.376,467.054Z" transform="translate(-26.708 -84.065)" fill="#dabc64"/>
      <path id="Path_56357" data-name="Path 56357" d="M843.423,491.958c1.976,0,3.951,0,5.927,0,.618,0,1.174.108,1.2.86.031.806-.549.964-1.2.965q-5.969.006-11.939,0c-.648,0-1.26-.143-1.258-.917s.586-.918,1.252-.913C839.415,491.967,841.419,491.958,843.423,491.958Z" transform="translate(-26.709 -106.255)" fill="#dabc64"/>
      <path id="Path_56358" data-name="Path 56358" d="M843.335,547.042c-1.976,0-3.951-.009-5.927.005-.669,0-1.249-.157-1.249-.918s.615-.913,1.262-.912q5.927,0,11.854,0c.63,0,1.225.081,1.285.886.047.641-.373.935-1.3.937Q846.3,547.047,843.335,547.042Z" transform="translate(-26.71 -150.485)" fill="#dabc64"/>
      <path id="Path_56359" data-name="Path 56359" d="M843.261,520.567c-1.974,0-3.947-.009-5.921.005-.637,0-1.18-.143-1.183-.872s.537-.879,1.176-.877q6.048.016,12.1,0c.641,0,1.145.143,1.123.911-.021.722-.522.836-1.117.834C847.377,520.562,845.319,520.567,843.261,520.567Z" transform="translate(-26.707 -128.568)" fill="#dabc64"/>
      <path id="Path_56360" data-name="Path 56360" d="M960.373,490.294c-1.919,0-3.839.005-5.758,0-1.116,0-1.4-.288-1.4-1.405q-.01-3.133,0-6.266c0-1.115.288-1.4,1.408-1.4q5.843-.008,11.686,0c1.117,0,1.4.287,1.4,1.4q.011,3.133,0,6.266c0,1.115-.289,1.4-1.409,1.4C964.325,490.3,962.349,490.294,960.373,490.294Zm-5.3-1.885h10.747v-5.32H955.07Z" transform="translate(-123.901 -97.34)" fill="#dabc64"/>
      <path id="Path_56361" data-name="Path 56361" d="M955.422,547.154c-.338,0-.732.11-1-.028a1.45,1.45,0,0,1-.759-.839,1.037,1.037,0,0,1,.611-.83,7.437,7.437,0,0,1,2.252-.007,1.041,1.041,0,0,1,.632.817,1.436,1.436,0,0,1-.74.856c-.263.14-.66.028-1,.028Z" transform="translate(-124.281 -150.609)" fill="#dabc64"/>
      <path id="Path_56362" data-name="Path 56362" d="M987.476,546.827c-.31,0-.679.106-.915-.025-.347-.192-.821-.549-.828-.846a1.214,1.214,0,0,1,.77-.881,4.375,4.375,0,0,1,1.922,0,1.306,1.306,0,0,1,.8.88c.081.522-.341.855-.906.878-.281.011-.563,0-.845,0Z" transform="translate(-150.911 -150.276)" fill="#dabc64"/>
      <path id="Path_56363" data-name="Path 56363" d="M1019.433,546.89c-.282,0-.619.1-.832-.022-.349-.2-.836-.521-.857-.821a1.189,1.189,0,0,1,.734-.9,4.736,4.736,0,0,1,2,0,1.186,1.186,0,0,1,.729.9c-.023.3-.508.632-.861.814C1020.106,546.992,1019.743,546.89,1019.433,546.89Z" transform="translate(-177.492 -150.337)" fill="#dabc64"/>
      <path id="Path_56364" data-name="Path 56364" d="M955.326,587.969c.282,0,.564-.008.845,0,.564.019.991.344.914.869a1.3,1.3,0,0,1-.793.887,4.376,4.376,0,0,1-1.922,0,1.3,1.3,0,0,1-.8-.884c-.079-.523.345-.853.911-.874C954.762,587.96,955.044,587.969,955.326,587.969Z" transform="translate(-124.197 -185.982)" fill="#dabc64"/>
      <path id="Path_56365" data-name="Path 56365" d="M987.317,587.808c.31,0,.679-.106.915.025.346.192.82.55.826.847a1.216,1.216,0,0,1-.771.881,4.374,4.374,0,0,1-1.922,0,1.3,1.3,0,0,1-.8-.882c-.08-.522.343-.854.908-.876.281-.011.563,0,.845,0Z" transform="translate(-150.763 -185.818)" fill="#dabc64"/>
      <path id="Path_56366" data-name="Path 56366" d="M1019.418,589.481c-.309,0-.687.112-.912-.026-.336-.207-.784-.595-.777-.9s.481-.753.822-.833a4.125,4.125,0,0,1,1.841,0c.339.081.81.547.812.843s-.446.7-.789.887c-.258.143-.66.029-1,.029Z" transform="translate(-177.481 -185.697)" fill="#dabc64"/>
      <path id="Path_56367" data-name="Path 56367" d="M955.449,568.3a2.439,2.439,0,0,1-.995-.028c-.324-.162-.784-.562-.752-.8a1.248,1.248,0,0,1,.78-.857,4.521,4.521,0,0,1,1.915,0c.328.073.79.553.784.84s-.478.64-.821.827c-.238.129-.6.025-.911.025Z" transform="translate(-124.313 -168.164)" fill="#dabc64"/>
      <path id="Path_56368" data-name="Path 56368" d="M987.453,568.3a2.458,2.458,0,0,1-.995-.027c-.325-.161-.788-.556-.758-.8a1.245,1.245,0,0,1,.773-.863,4.526,4.526,0,0,1,1.915,0c.329.072.794.547.79.834s-.473.645-.815.832c-.237.13-.6.025-.911.025Z" transform="translate(-150.884 -168.164)" fill="#dabc64"/>
      <path id="Path_56369" data-name="Path 56369" d="M1019.469,568.3c-.308,0-.671.1-.911-.024-.345-.184-.82-.529-.83-.819s.449-.774.776-.847a4.524,4.524,0,0,1,1.916,0c.328.073.79.553.783.84s-.479.64-.822.826C1020.142,568.4,1019.778,568.3,1019.469,568.3Z" transform="translate(-177.48 -168.164)" fill="#dabc64"/>
    </g>
  </g>
</svg>
