<svg xmlns="http://www.w3.org/2000/svg" width="60" height="60" viewBox="0 0 60 60">
  <g id="apply-loan-home-icon" transform="translate(-3027 -1259)">
    <rect id="Rectangle_7176" data-name="Rectangle 7176" width="60" height="60" transform="translate(3027 1259)" fill="#fff" opacity="0"/>
    <g id="Group_41049" data-name="Group 41049" transform="translate(3264 1333.735)">
      <path id="Path_56380" data-name="Path 56380" d="M-230-65.087c.835-2.171,1.53-2.647,3.874-2.647q11.679,0,23.358,0c2.578,0,3.679,1.092,3.68,3.636q0,.943,0,1.887c0,1.078-.009,2.156,0,3.234.006.505-.112.932-.691.954-.643.025-.764-.422-.761-.967.011-1.767.007-3.534,0-5.3,0-1.449-.545-2-2.012-2q-7.142-.009-14.284,0-4.807,0-9.613,0c-1.547,0-2.091.557-2.091,2.125q0,16.8,0,33.6c0,1.533.569,2.1,2.124,2.1q11.9,0,23.807,0c1.53,0,2.065-.54,2.069-2.04a16.1,16.1,0,0,1,.036-2.241c.043-.3.466-.55.717-.822.23.265.636.517.658.8a19.755,19.755,0,0,1,.012,3.051,3.021,3.021,0,0,1-3.168,2.689c-1.317.037-2.635.009-3.953.009h-17.582c-.643,2.014.106,3.076,2.11,3.076h23.538c1.646,0,2.129-.486,2.13-2.131q0-3.908,0-7.816c0-.21-.077-.474.021-.617a5.356,5.356,0,0,1,.735-.744c.23.255.658.508.661.766.044,3.114.078,6.23,0,9.342-.036,1.419-1.1,2.153-2.314,2.655h-26.058c-2.223-.694-2.637-2.429-2.407-4.487a6.091,6.091,0,0,0-.669-.04A3.453,3.453,0,0,1-230-29.5Z" transform="translate(0 0)" fill="#dabc64"/>
      <path id="Path_56381" data-name="Path 56381" d="M-91.348-59.712c-2.083,3.894-4.227,7.757-6.226,11.693a22.354,22.354,0,0,0-1.85,7.523c-.095.77-.114,1.549-.2,2.321a1.25,1.25,0,0,1-1.229,1.292,14.622,14.622,0,0,0-9.033,3.895,2.858,2.858,0,0,1-2.173.81c-1.074-.062-2.154-.02-3.232-.013-.461,0-.862-.077-.888-.641-.027-.58.347-.8.855-.808.892-.018,1.784,0,2.719,0a15.288,15.288,0,0,0-1.61-10.206c-.529-.911-.372-1.326.44-2.072,1.914-1.757,3.825-3.523,5.644-5.376a11.069,11.069,0,0,0,1.689-2.521c2.288-4.227,4.537-8.475,6.8-12.716a2.486,2.486,0,0,1,.453-.762c.193-.161.6-.3.763-.205a1.122,1.122,0,0,1,.423.771,1.513,1.513,0,0,1-.29.731q-3.107,5.854-6.223,11.7c-.153.287-.3.575-.494.939l6.691,3.571,4.444-8.342c.309-.579.611-1.163.929-1.737.513-.927.87-.969,1.6-.2Zm-14.368,7.631a34.572,34.572,0,0,1-7.279,7.433,17.68,17.68,0,0,1,2.26,8.488l2.258-4.266c-.218-.315-.407-.549-.554-.806a3.018,3.018,0,0,1,.4-3.5,2.961,2.961,0,0,1,3.517-.677,3.065,3.065,0,0,1,1.709,3c-.181,1.347-1.219,2.657-2.442,2.59-1.288-.071-1.7.6-2.127,1.537-.354.787-.8,1.533-1.194,2.3a2.64,2.64,0,0,0-.147.476,42.6,42.6,0,0,1,3.984-1.887,37.837,37.837,0,0,1,4.007-1.013l2.056-10.243Zm-.779,10.885a1.5,1.5,0,0,0,1.574-1.484,1.568,1.568,0,0,0-1.532-1.561,1.592,1.592,0,0,0-1.54,1.564A1.527,1.527,0,0,0-106.495-41.2Z" transform="translate(-93.364 -0.163)" fill="#dabc64"/>
      <path id="Path_56382" data-name="Path 56382" d="M-100.265-37.918c0-1.076,0-2.152,0-3.228,0-.519.084-.995.725-1.024.678-.03.734.453.732.976-.006,2.064.017,4.128-.024,6.191-.006.32-.3.634-.453.95-.332-.184-.794-.284-.972-.565-.654-1.032-1.212-2.124-1.811-3.19-.107-.191-.242-.366-.515-.774,0,1.359,0,2.451,0,3.544,0,.511-.024,1.012-.709,1-.644-.011-.748-.481-.748-1,0-2.064-.023-4.128.024-6.191.007-.312.319-.854.522-.869a1.243,1.243,0,0,1,.959.515c.747,1.21,1.409,2.472,2.1,3.715Z" transform="translate(-103.317 -20.969)" fill="#dabc64"/>
      <path id="Path_56383" data-name="Path 56383" d="M-201.686,115.872c.483-.684.8-1.138,1.122-1.588a1.811,1.811,0,0,1,3.127-.081,1.714,1.714,0,0,0,1.017.5c.587.082,1.214-.07,1.783.059.345.078.613.5.915.766a9.616,9.616,0,0,1-.927.639c-.139.075-.352.015-.531.013-1.413-.013-2.964.358-3.742-1.658-.449.638-.757,1.053-1.04,1.484a1.865,1.865,0,0,1-1.843,1.027,1.805,1.805,0,0,1-1.564-1.411c-.184-.656-.357-.674-.878-.2a3.388,3.388,0,0,1-1.617.728,6.605,6.605,0,0,1-2.053,0c-.3-.041-.564-.391-.844-.6a3.558,3.558,0,0,1,.8-.789,2.425,2.425,0,0,1,.973-.035,2.342,2.342,0,0,0,2.134-.708,1.675,1.675,0,0,1,2.684.612C-202.023,114.941-201.917,115.274-201.686,115.872Z" transform="translate(-17.421 -148.535)" fill="#dabc64"/>
      <path id="Path_56384" data-name="Path 56384" d="M-184.844-38.721a15.6,15.6,0,0,1,1.41-2.893,2.325,2.325,0,0,1,3.673,0,5.235,5.235,0,0,1,.061,6.381,2.413,2.413,0,0,1-3.821.04,4.836,4.836,0,0,1-1.087-3.41Zm4.928.312a13.352,13.352,0,0,0-.85-2.1.987.987,0,0,0-1.718-.056,3.893,3.893,0,0,0-.005,4.355.983.983,0,0,0,1.719-.047A13.522,13.522,0,0,0-179.916-38.409Z" transform="translate(-37.04 -20.689)" fill="#dabc64"/>
      <path id="Path_56385" data-name="Path 56385" d="M-141.241-35.368c-.459,0-.819.017-1.176,0-.773-.045-1.482-.074-1.657.979-.032.2-.588.306-.9.456-.134-.318-.451-.692-.373-.944.687-2.219,1.43-4.421,2.2-6.612a.935.935,0,0,1,.684-.529.954.954,0,0,1,.715.517c.761,2.164,1.494,4.339,2.163,6.533a1.118,1.118,0,0,1-.39,1c-.482.26-.823-.112-.986-.6C-141.046-34.822-141.137-35.072-141.241-35.368Zm-1.223-3.7-.709,2.2h1.448Z" transform="translate(-69.426 -21.09)" fill="#dabc64"/>
      <path id="Path_56386" data-name="Path 56386" d="M-207.439,26.223c-1.494,0-2.989.027-4.482-.021a1.445,1.445,0,0,1-.981-.446c-.375-.468.078-.964.878-.967,2.66-.008,5.319,0,7.978,0a5.663,5.663,0,0,1,1.338.026,3.271,3.271,0,0,1,.913.6c-.3.268-.574.731-.9.767a26.227,26.227,0,0,1-2.865.04Z" transform="translate(-13.916 -75.868)" fill="#dabc64"/>
      <path id="Path_56387" data-name="Path 56387" d="M-207.207,45.86c1.524,0,3.048.01,4.572-.006.493,0,.96.059.975.643.015.6-.436.793-.977.793q-4.617,0-9.234,0c-.523,0-1.01-.175-.983-.781.025-.557.487-.656.986-.651C-210.315,45.87-208.761,45.86-207.207,45.86Z" transform="translate(-14.063 -93.173)" fill="#dabc64"/>
      <path id="Path_56388" data-name="Path 56388" d="M-207.1,66.85c1.553,0,3.108-.033,4.659.028.311.012.608.387.911.595-.3.268-.589.763-.89.769q-4.7.085-9.408,0a1.187,1.187,0,0,1-.878-.747c-.062-.537.446-.657.947-.652C-210.207,66.859-208.654,66.85-207.1,66.85Z" transform="translate(-14.18 -110.388)" fill="#dabc64"/>
      <path id="Path_56389" data-name="Path 56389" d="M-207.018,87.824c1.523,0,3.047-.034,4.567.028.312.013.61.385.915.591-.295.267-.586.762-.886.767q-4.7.085-9.4,0a1.187,1.187,0,0,1-.884-.737c-.064-.538.445-.66.944-.656C-210.183,87.832-208.6,87.824-207.018,87.824Z" transform="translate(-14.179 -127.592)" fill="#dabc64"/>
      <path id="Path_56390" data-name="Path 56390" d="M-211.57-35.466a12.047,12.047,0,0,1,2.072.033c.353.065.864.423.916.718.093.533-.4.706-.906.7q-1.3-.017-2.6,0c-.63.008-.935-.276-.933-.915q.01-3.181,0-6.362c0-.521.186-.893.762-.881.6.013.691.443.689.939C-211.574-39.358-211.57-37.481-211.57-35.466Z" transform="translate(-13.929 -20.966)" fill="#dabc64"/>
      <path id="Path_56391" data-name="Path 56391" d="M-132.875,24.838c1.108,0,2.22-.049,3.322.031.311.023.6.421.891.647-.289.252-.572.714-.868.722-2.244.062-4.491.045-6.736.026-.491,0-.881-.221-.84-.819s.464-.61.907-.609C-135.091,24.84-133.983,24.838-132.875,24.838Z" transform="translate(-76.195 -75.923)" fill="#dabc64"/>
      <path id="Path_56392" data-name="Path 56392" d="M-133.927,87.764a17.07,17.07,0,0,1,2.056.027c.267.033.725.417.7.562-.06.3-.377.769-.606.78-1.488.071-2.982.071-4.47,0-.228-.011-.542-.482-.6-.783-.029-.145.428-.532.691-.56A21.106,21.106,0,0,1-133.927,87.764Z" transform="translate(-76.403 -127.535)" fill="#dabc64"/>
      <path id="Path_56393" data-name="Path 56393" d="M-134.674,66.734a6.169,6.169,0,0,1,1.424.028c.3.073.538.417.8.639-.224.246-.434.689-.674.705a22.224,22.224,0,0,1-3.208-.014c-.212-.016-.545-.49-.535-.741.009-.215.406-.538.675-.591A7.948,7.948,0,0,1-134.674,66.734Z" transform="translate(-76.397 -110.276)" fill="#dabc64"/>
      <path id="Path_56394" data-name="Path 56394" d="M-134.806,45.751a6.8,6.8,0,0,1,1.428.026c.285.062.512.385.765.591-.23.271-.44.752-.691.774a18.1,18.1,0,0,1-3.039,0c-.217-.018-.55-.489-.548-.75,0-.215.39-.553.658-.613A6.7,6.7,0,0,1-134.806,45.751Z" transform="translate(-76.374 -93.067)" fill="#dabc64"/>
    </g>
  </g>
</svg>
