<svg xmlns="http://www.w3.org/2000/svg" width="30" height="30" viewBox="0 0 30 30">
  <g id="attachment-icon" transform="translate(-1146 -1270)">
    <rect id="Rectangle_7175" data-name="Rectangle 7175" width="30" height="30" transform="translate(1146 1270)" fill="#fff" opacity="0"/>
    <g id="Group_41041" data-name="Group 41041" transform="translate(1330.721 1387.674)">
      <path id="Path_41151" data-name="Path 41151" d="M-169.711-109.936q5.219,0,10.437,0a2.652,2.652,0,0,1,2.527,2.329,3.815,3.815,0,0,1,.072.756q.006,6.517,0,13.034c0,1.849-1.151,3.207-2.716,3.208q-10.36,0-20.719,0c-1.562,0-2.661-1.294-2.662-3.137q0-6.517,0-13.034c0-1.863,1.1-3.156,2.673-3.157Q-174.9-109.939-169.711-109.936Zm-.037,18.029c3.452,0,6.9-.011,10.357.007a1.706,1.706,0,0,0,1.614-1.886c-.022-4.323-.009-8.647-.012-12.971a2.709,2.709,0,0,0-.051-.6,1.512,1.512,0,0,0-1.523-1.275c-2.371,0-4.741,0-7.112,0q-6.8,0-13.6,0c-.965,0-1.576.714-1.576,1.847q0,6.531,0,13.063a2.433,2.433,0,0,0,.051.543,1.518,1.518,0,0,0,1.548,1.276Z" transform="translate(0 -2.403)" fill="#818fa1"/>
      <path id="Path_41152" data-name="Path 41152" d="M110.7,38.159q-1.856,0-3.713,0c-.506,0-.7-.185-.7-.683,0-.692-.006-1.385.035-2.076a4.052,4.052,0,0,1,3.472-3.622,5.138,5.138,0,0,1,2.992.363,4.006,4.006,0,0,1,2.306,3.607c.025.561.005,1.125.006,1.687,0,.525-.2.723-.716.722H110.7Zm-3.3-1.137h6.541c0-.425.014-.83,0-1.233a2.9,2.9,0,0,0-2.027-2.779,5.34,5.34,0,0,0-1.558-.17,2.957,2.957,0,0,0-2.823,2.087A8.408,8.408,0,0,0,107.4,37.021Z" transform="translate(-274.044 -134.988)" fill="#818fa1"/>
      <path id="Path_41153" data-name="Path 41153" d="M141.746-75.392a2.57,2.57,0,0,1,2.528-2.53,2.6,2.6,0,0,1,2.563,2.562,2.542,2.542,0,0,1-2.523,2.529A2.544,2.544,0,0,1,141.746-75.392Zm3.975-.015a1.364,1.364,0,0,0-1.4-1.41,1.477,1.477,0,0,0-1.471,1.383,1.466,1.466,0,0,0,1.37,1.5A1.467,1.467,0,0,0,145.721-75.407Z" transform="translate(-307.662 -31.046)" fill="#818fa1"/>
      <path id="Path_41154" data-name="Path 41154" d="M-109.683,35.323h7.989V36.4h-7.989Z" transform="translate(-69.292 -138.409)" fill="#818fa1"/>
      <path id="Path_41155" data-name="Path 41155" d="M-101.693-33.719v1.067h-7.992v-1.067Z" transform="translate(-69.29 -72.953)" fill="#818fa1"/>
      <path id="Path_41156" data-name="Path 41156" d="M-109.819,106v-1.078h8V106Z" transform="translate(-69.163 -204.393)" fill="#818fa1"/>
    </g>
  </g>
</svg>
