<svg xmlns="http://www.w3.org/2000/svg" width="30" height="30" viewBox="0 0 30 30">
  <g id="attachment-icon" transform="translate(-1148 -1270)">
    <rect id="Rectangle_7175" data-name="Rectangle 7175" width="30" height="30" transform="translate(1148 1270)" fill="#fff" opacity="0"/>
    <g id="Group_41040" data-name="Group 41040" transform="translate(1210.988 1361.917)">
      <path id="Path_56406" data-name="Path 56406" d="M-36.439-80.485l1.37,1.345c-.108.118-.2.231-.307.334-4.388,4.344-8.74,8.724-13.185,13.008a6.861,6.861,0,0,1-5.4,1.808,7.358,7.358,0,0,1-6.684-5.494,7.042,7.042,0,0,1,.99-5.888,8.251,8.251,0,0,1,1.093-1.311q5.761-5.725,11.544-11.429A5.6,5.6,0,0,1-37.8-86.533a5.127,5.127,0,0,1-.929,5.785c-1.2,1.341-2.538,2.565-3.821,3.834-2.757,2.73-5.5,5.47-8.282,8.178a3.708,3.708,0,0,1-6.15-1.479A3.515,3.515,0,0,1-56-74.006q4.51-4.472,9.028-8.935c.465-.461.907-.945,1.377-1.438l1.4,1.474a2.371,2.371,0,0,0-.482.3q-4.956,4.884-9.9,9.779a1.922,1.922,0,0,0-.685,1.892,1.858,1.858,0,0,0,2.959,1.042,4.316,4.316,0,0,0,.335-.308q5.762-5.689,11.524-11.377a3.634,3.634,0,0,0,1.133-3.672,3.732,3.732,0,0,0-6.31-1.644q-3.849,3.773-7.668,7.576-2.032,2.011-4.058,4.029a5.28,5.28,0,0,0-1.475,5.424,5.265,5.265,0,0,0,4.155,3.913,5.468,5.468,0,0,0,5.309-1.613Q-43.677-73.189-38-78.815C-37.459-79.348-36.963-79.921-36.439-80.485Z" transform="translate(0)" fill="#818fa1"/>
    </g>
  </g>
</svg>
