<svg xmlns="http://www.w3.org/2000/svg" width="40" height="40" viewBox="0 0 40 40">
  <g id="back-arrow-icon" transform="translate(-5268 -1229)">
    <rect id="Rectangle_7178" data-name="Rectangle 7178" width="40" height="40" transform="translate(5268 1229)" fill="#fff" opacity="0"/>
    <g id="Group_41061" data-name="Group 41061" transform="translate(5394.597 1258.926) rotate(180)">
      <g id="Group_8968" data-name="Group 8968" transform="translate(101.478)">
        <path id="Path_20062" data-name="Path 20062" d="M112.3,8.725,103.873.3a1.038,1.038,0,0,0-1.464,0l-.62.62a1.037,1.037,0,0,0,0,1.464l7.072,7.072-7.08,7.08a1.038,1.038,0,0,0,0,1.464l.62.62a1.038,1.038,0,0,0,1.464,0l8.43-8.43a1.045,1.045,0,0,0,0-1.469Z" transform="translate(-101.478 0)"/>
      </g>
    </g>
  </g>
</svg>
