<svg xmlns="http://www.w3.org/2000/svg" width="40" height="40" viewBox="0 0 40 40">
  <g id="bike-icon" transform="translate(-7536 -2356)">
    <g id="Rectangle_7179" data-name="Rectangle 7179" transform="translate(7536 2356)" fill="#fff" stroke="#707070" stroke-width="1" opacity="0">
      <rect width="40" height="40" stroke="none"/>
      <rect x="0.5" y="0.5" width="39" height="39" fill="none"/>
    </g>
    <g id="Group_41063" data-name="Group 41063" transform="translate(7769.976 2388.121)">
      <path id="Path_56395" data-name="Path 56395" d="M-192.76-6.477a6.558,6.558,0,0,1-1.659,3.36,5.672,5.672,0,0,1-8.334-.255,5.666,5.666,0,0,1,.78-8.2c.157-.123.315-.244.514-.4L-201.953-13a6.462,6.462,0,0,0-2.614,2.712,6.984,6.984,0,0,0-.8,3.477c.019,1.346-.6,1.954-1.956,1.958q-2.916.007-5.832,0c-.966,0-1.359-.365-1.32-1.339a7.54,7.54,0,0,0-1.325-4.933,6.862,6.862,0,0,0-9.4-1.692c-.352.234-.753.707-1.139.164-.4-.563.156-.828.539-1.075.426-.275.878-.509,1.373-.792a1.3,1.3,0,0,1-.858-1.658,2.169,2.169,0,0,1,1.773-1.7,5.491,5.491,0,0,1,1-.056c2.838,0,5.676.007,8.513-.007a.694.694,0,0,0,.522-.261,3.937,3.937,0,0,1,3.792-2.038c1.38.013,2.76,0,4.256,0-.277-.579-.476-1.071-.746-1.521a.742.742,0,0,0-.545-.244c-.826-.026-1.653-.019-2.48-.01-.39,0-.726-.146-.666-.541a.849.849,0,0,1,.619-.529,31.318,31.318,0,0,1,3.215,0,1.046,1.046,0,0,1,.683.5c.375.65.675,1.343.962,1.931.8-.4,1.566-.779,2.33-1.157a.818.818,0,0,1,.189-.068c1.369-.292,1.63-.085,1.63,1.292,0,1.117,0,2.235,0,3.352,0,.873-.216,1.055-1.092.933-.3-.042-.607-.1-1.038-.17l.847,1.8a17.552,17.552,0,0,1,3.2-.36,18.341,18.341,0,0,1,3.288.744c.414.106.734.421.463.828a1,1,0,0,1-.907.136,6.747,6.747,0,0,0-5.385-.2c.223,1.011.268,1.043,1.221.856a5.639,5.639,0,0,1,6.771,4.6,3.109,3.109,0,0,0,.118.375Zm-7.173-4.9c.215.458.452.907.639,1.377a.956.956,0,0,0,1.025.7A2.1,2.1,0,0,1-196.3-6.915a2.221,2.221,0,0,1-1.651,1.9,2.259,2.259,0,0,1-2.354-.908,2.225,2.225,0,0,1,.067-2.567.776.776,0,0,0,.162-.572c-.257-.628-.579-1.231-.88-1.849a4.506,4.506,0,0,0-1.464,6.156,4.568,4.568,0,0,0,6.174,1.67,4.574,4.574,0,0,0,1.878-6.067A4.453,4.453,0,0,0-199.933-11.372Zm-6.223,2.031a1,1,0,0,0-.2-.066c-1.519-.005-3.04.024-4.557-.032a2.446,2.446,0,0,1-1.276-.443,2.178,2.178,0,0,1-.458-2.353,1.64,1.64,0,0,1,1.722-1.106c2.167-.009,4.335-.033,6.5.012a2.351,2.351,0,0,0,1.9-.717c0-.48-.321-.49-.685-.489-2.547.008-5.094.023-7.641-.009a20.406,20.406,0,0,1-2.1-.257,1.256,1.256,0,0,0-.361.048,7.526,7.526,0,0,1-1.164.211c-1.211.028-2.423.01-3.634.01a8.417,8.417,0,0,1,4.712,8.59c2.079,0,4.064,0,6.05,0,.827,0,1.023-.3.764-1.191-1.01,0-2.035,0-3.06,0-.4,0-.819-.021-.807-.551s.427-.544.83-.542c.871.005,1.743-.018,2.614.01.442.014.746-.041.722-.584A2.181,2.181,0,0,1-206.156-9.341Zm2.774-6.3c-.582-1.175-1.092-2.228-1.632-3.264a.579.579,0,0,0-.444-.2c-1.651,0-3.3-.025-4.954.034a2.518,2.518,0,0,0-2.343,2.331c-.064.735.183,1.089.9,1.095C-209.085-15.625-206.319-15.638-203.382-15.638Zm-20.88-.039h10.3v-1.1a2.278,2.278,0,0,0-.286-.039q-4.38,0-8.759,0C-223.724-16.822-224.1-16.449-224.262-15.678Zm19.6,3.435c-2.159,0-4.208.006-6.257,0-.553,0-.743.275-.751.787-.008.527.091.951.734.953,1.626.006,3.253.007,4.879-.006a.6.6,0,0,0,.433-.193C-205.3-11.173-205.014-11.668-204.66-12.243Zm3.279-5.242v-3.292c-1.379.223-2.307.919-2.238,1.655A2.168,2.168,0,0,0-201.381-17.485Zm4.291,10.42a9.073,9.073,0,0,0-.9-1.059c-.334-.285-.514.038-.721.274-.094.107-.325.08-.474.154s-.4.221-.381.293c.082.409.119.925.386,1.171a1.3,1.3,0,0,0,1.138.165C-197.7-6.2-197.472-6.644-197.09-7.066Z" transform="translate(-3.892)" fill="#818ea1"/>
      <path id="Path_56396" data-name="Path 56396" d="M-219.574,59.685A5.708,5.708,0,0,1-225.3,65.36a5.78,5.78,0,0,1-5.681-5.746,5.734,5.734,0,0,1,5.751-5.656A5.664,5.664,0,0,1-219.574,59.685Zm-1.085,0a4.633,4.633,0,0,0-4.567-4.638,4.656,4.656,0,0,0-4.645,4.571,4.684,4.684,0,0,0,4.58,4.648A4.656,4.656,0,0,0-220.659,59.681Z" transform="translate(0 -66.742)" fill="#818ea1"/>
      <path id="Path_56397" data-name="Path 56397" d="M-202.863,84.165a2.2,2.2,0,0,1-2.214-2.269,2.2,2.2,0,0,1,2.272-2.211,2.21,2.21,0,0,1,2.222,2.27A2.217,2.217,0,0,1-202.863,84.165Zm.021-3.379a1.12,1.12,0,0,0-1.149,1.129,1.156,1.156,0,0,0,1.2,1.16,1.113,1.113,0,0,0,1.1-1.172A1.091,1.091,0,0,0-202.842,80.786Z" transform="translate(-22.425 -89.018)" fill="#818ea1"/>
    </g>
  </g>
</svg>
