<svg xmlns="http://www.w3.org/2000/svg" width="40" height="40" viewBox="0 0 40 40">
  <g id="change-password-icon" transform="translate(-3502 -1267)">
    <rect id="Rectangle_7177" data-name="Rectangle 7177" width="40" height="40" transform="translate(3502 1267)" fill="#fff" opacity="0"/>
    <g id="Group_41057" data-name="Group 41057" transform="translate(3473.03 1161.985)">
      <path id="Path_41174" data-name="Path 41174" d="M59.765,126.762c.838,0,1.582-.007,2.325,0a1.4,1.4,0,0,1,1.475,1.415q.037,2.373,0,4.748A1.41,1.41,0,0,1,62.1,134.36c-.744.016-1.489.013-2.233.021-.014,0-.028.023-.1.087,0,.76,0,1.574,0,2.387a2.466,2.466,0,0,1-2.751,2.757q-7.764,0-15.528,0a2.455,2.455,0,0,1-2.7-2.693c0-.833,0-1.666,0-2.557-.773,0-1.493,0-2.214,0a1.457,1.457,0,0,1-1.592-1.594q-.01-2.206,0-4.413a1.443,1.443,0,0,1,1.585-1.593c.721,0,1.442,0,2.222,0,0-.851,0-1.646,0-2.441a2.531,2.531,0,0,1,2.422-2.862c0-.816-.015-1.648,0-2.48a8.067,8.067,0,0,1,16.126-.232c.029.891,0,1.784,0,2.708.178.035.318.057.455.089a2.409,2.409,0,0,1,1.971,2.488C59.776,124.921,59.765,125.811,59.765,126.762Zm-10.433.909H36.825c-.788,0-.925.13-.927.886q0,2.038,0,4.076c0,.657.164.813.835.813q12.535,0,25.07,0c.692,0,.841-.154.843-.862q.006-2.01,0-4.02c0-.763-.137-.893-.92-.893Zm-9.6,6.713c0,.831,0,1.61,0,2.389,0,1.423.489,1.916,1.9,1.916H52.9c1.414,0,2.828.005,4.242,0,.848,0,1.532-.378,1.585-1.034.087-1.079.023-2.169.023-3.27Zm19.09-7.649c0-.852,0-1.667,0-2.482,0-1.313-.517-1.827-1.821-1.828H46.388c-1.675,0-3.35,0-5.025,0-.843,0-1.521.431-1.568,1.124-.071,1.048-.019,2.1-.019,3.184ZM53.53,121.5c0-.992.074-1.942-.014-2.877a4.238,4.238,0,0,0-6.044-3.4c-2.564,1.254-2.739,3.461-2.405,6.274Zm-11.4-.012h1.893c0-.821-.014-1.616,0-2.411a5.245,5.245,0,0,1,10.489.087c.008.774,0,1.547,0,2.3h1.8a26.093,26.093,0,0,0-.026-3.55,7.043,7.043,0,0,0-5.9-5.884,7.251,7.251,0,0,0-7.6,4C41.951,117.774,42.135,119.612,42.134,121.486Z" transform="translate(0 0)" fill="#dac066"/>
      <path id="Path_41175" data-name="Path 41175" d="M148.023,271.888a2.78,2.78,0,0,1-.7.424.7.7,0,0,1-.608-.141c-.085-.111,0-.455.119-.594a4.5,4.5,0,0,1,.8-.579,4.565,4.565,0,0,1-.781-.571c-.127-.142-.123-.4-.177-.609a1.868,1.868,0,0,1,.666-.124,2.424,2.424,0,0,1,.665.393c.1-.4-.114-.982.5-.966.586.015.381.561.489.95.209-.127.4-.233.579-.353.267-.177.519-.211.723.081.221.316.021.517-.218.693-.22.162-.447.313-.721.5.264.184.488.337.709.5.24.171.452.368.239.685s-.491.256-.77.071c-.166-.11-.341-.205-.552-.331-.091.4.108.986-.511.963C147.922,272.856,148.077,272.324,148.023,271.888Z" transform="translate(-99.228 -140.44)" fill="#dac066"/>
      <path id="Path_41176" data-name="Path 41176" d="M195.487,270.116c.034-.021.192-.112.343-.213.29-.193.578-.307.807.068s-.073.541-.306.72c-.189.145-.395.268-.646.436a4.647,4.647,0,0,1,.775.577c.127.143.124.4.179.608a1.916,1.916,0,0,1-.677.123,2.307,2.307,0,0,1-.65-.391c-.081.421.1,1-.516.975-.557-.02-.393-.559-.455-.988a2.775,2.775,0,0,1-.7.428.7.7,0,0,1-.608-.15c-.083-.115.007-.456.133-.6a4.481,4.481,0,0,1,.794-.574l-.676-.466c-.26-.179-.5-.384-.274-.727s.489-.253.767-.058c.162.114.34.205.546.328.11-.4-.1-1.01.529-.928C195.074,269.316,195.24,269.777,195.487,270.116Z" transform="translate(-140.302 -140.581)" fill="#dac066"/>
      <path id="Path_41177" data-name="Path 41177" d="M100.947,272.155a1.338,1.338,0,0,1-.463.275,2.212,2.212,0,0,1-.686-.081,1.7,1.7,0,0,1,.182-.648,3.874,3.874,0,0,1,.757-.551,4.538,4.538,0,0,1-.783-.573c-.126-.141-.119-.4-.171-.61a1.9,1.9,0,0,1,.668-.117,2.377,2.377,0,0,1,.653.38c.093-.4-.093-1,.519-.933.221.026.392.484.585.746l-.09.171a2.258,2.258,0,0,1,.631-.364,1.87,1.87,0,0,1,.67.116c-.054.209-.048.47-.175.614a4.246,4.246,0,0,1-.77.555c.226.164.425.315.633.456.278.188.547.4.289.759s-.549.184-.827,0c-.137-.09-.279-.173-.481-.3-.089.409.1,1.042-.538.949C101.328,272.972,101.173,272.491,100.947,272.155Z" transform="translate(-57.572 -140.592)" fill="#dac066"/>
      <path id="Path_41178" data-name="Path 41178" d="M54.022,272.164a1.294,1.294,0,0,1-.453.267,2.248,2.248,0,0,1-.687-.076,1.687,1.687,0,0,1,.178-.65,3.884,3.884,0,0,1,.762-.556,4.489,4.489,0,0,1-.784-.568c-.127-.141-.12-.4-.172-.611a1.89,1.89,0,0,1,.667-.119,2.351,2.351,0,0,1,.649.378c.089-.4-.084-1,.523-.931.22.025.39.486.583.748l-.091.167a2.282,2.282,0,0,1,.633-.362,1.905,1.905,0,0,1,.672.112c-.053.211-.047.474-.174.619a4.262,4.262,0,0,1-.779.561,3.907,3.907,0,0,1,.763.56c.132.156.119.434.171.658a1.756,1.756,0,0,1-.643.1,2.624,2.624,0,0,1-.666-.415c-.1.411.1,1.052-.539.964C54.413,272.979,54.253,272.5,54.022,272.164Z" transform="translate(-15.896 -140.595)" fill="#dac066"/>
      <path id="Path_41179" data-name="Path 41179" d="M241.916,294.638a9.968,9.968,0,0,1,1.335.019c.184.025.339.262.507.4-.168.165-.33.464-.506.473a27.235,27.235,0,0,1-2.785,0c-.172-.009-.329-.308-.493-.473.164-.14.317-.38.5-.4A12.322,12.322,0,0,1,241.916,294.638Z" transform="translate(-182.099 -163.095)" fill="#dac066"/>
      <path id="Path_41180" data-name="Path 41180" d="M86.906,222.644a4.012,4.012,0,0,1-.019.945c-.049.187-.275.328-.422.49-.165-.163-.444-.308-.474-.493a3.959,3.959,0,0,1,0-1.332.792.792,0,0,1,.523-.5,3.736,3.736,0,0,1,1.277,0,.739.739,0,0,1,.489.451c.08.322-.184.441-.487.44C87.523,222.642,87.249,222.644,86.906,222.644Z" transform="translate(-45.272 -98.317)" fill="#dac066"/>
    </g>
  </g>
</svg>
