<svg xmlns="http://www.w3.org/2000/svg" width="60" height="60" viewBox="0 0 60 60">
  <g id="downlines-icon" transform="translate(-3027 -1259)">
    <rect id="Rectangle_7176" data-name="Rectangle 7176" width="60" height="60" transform="translate(3027 1259)" fill="#fff" opacity="0"/>
    <path id="Path_56414" data-name="Path 56414" d="M-394.036,161.6h2.84c0-1.336,0-2.616,0-3.9,0-.581-.072-1.279.763-1.276.892,0,.682.762.693,1.3.023,1.051.029,2.1,0,3.155-.017.561.165.786.751.782q4.53-.03,9.06,0c.622,0,.729-.287.719-.813-.023-1.153,0-2.307-.007-3.461,0-.514.087-1.079.719-.937a1.3,1.3,0,0,1,.711.977c.083,1.35.034,2.709.034,4.222.817,0,1.584.03,2.346-.022.181-.012.329-.318.519-.45.273-.19.61-.517.847-.464a1.053,1.053,0,0,1,.552.781c.16,1.385-.082,1.632-1.439,1.632q-9.569,0-19.138,0c-1.3,0-1.413-.109-1.416-1.375,0-1.727,0-3.454,0-5.339h-1.13q-6.311,0-12.623,0a1.3,1.3,0,0,1-1.242-1.993c.231-.509,1.1-.686,1.223-.225.283,1.045,1.037.733,1.689.765.4.02.8,0,1.344,0,0-.479-.015-.873,0-1.265.027-.587-.135-1.379.781-1.36s.689.829.731,1.4c.027.364,0,.733,0,1.162h9.093c.805-4.407.805-4.407,5.463-6.2-1.416-2.719-4.38-2.313-6.495-3.5-1.361,2.464-4.184,2.672-5.687.053-1.545.521-3.127.994-4.661,1.59a3.409,3.409,0,0,0-2.091,3.412c-.026.572.331,1.493-.7,1.484-1.055-.009-.751-.948-.753-1.564a4.9,4.9,0,0,1,3.587-4.961c1.248-.419,2.509-.8,3.747-1.245.3-.107.749-.39.753-.6.01-.522-.018-1.273-.346-1.535a6.158,6.158,0,0,1-2.4-5.238c.017-1.017-.024-2.039.052-3.051a5.365,5.365,0,0,1,3.712-4.985,5.518,5.518,0,0,1,6.144,1.489c.094.1.194.184.365.345.9-1.665,2.475-2.245,4.127-2.723a22.945,22.945,0,0,0,2.4-.812c.383-.158.905-.434.991-.756a1.374,1.374,0,0,0-.548-1.667,4.461,4.461,0,0,1-2.047-3.371,25.47,25.47,0,0,1,0-5.355,5.524,5.524,0,0,1,5.724-4.711,5.682,5.682,0,0,1,5.453,5.308,29.415,29.415,0,0,1-.138,4.763,4.651,4.651,0,0,1-2.133,3.434,1.338,1.338,0,0,0-.465,1.608c.06.3.548.579.9.726a22.264,22.264,0,0,0,2.3.774c1.709.5,3.373,1.052,4.328,2.792a5.677,5.677,0,0,1,6.307-1.9,5.166,5.166,0,0,1,3.826,4.646,32.789,32.789,0,0,1,.038,4.568,4.968,4.968,0,0,1-2.2,3.944c-.717.508-.516,1.133-.457,1.711.024.237.526.5.858.617,1.27.459,2.565.845,3.838,1.3A5.069,5.069,0,0,1-358.443,151c-.051.292-.485.518-.741.774-.231-.27-.587-.509-.667-.819-.141-.547-.071-1.145-.167-1.709a2.953,2.953,0,0,0-1.952-2.406c-1.543-.571-3.115-1.064-4.658-1.585-1.413,2.532-4.249,2.5-5.684-.046-2.126,1.152-5.023.826-6.414,3.289a29.583,29.583,0,0,1,3.894,2.22c1.253.981,1.468,2.53,1.356,4.247h9.234a8.27,8.27,0,0,1,.032-1.738c.077-.34.462-.61.709-.911.257.3.654.555.737.893a7.9,7.9,0,0,1,.033,1.751c.842,0,1.612.031,2.375-.023.18-.013.323-.335.511-.48.24-.185.533-.492.757-.456a1.012,1.012,0,0,1,.644.635c.339,1.248-.1,1.779-1.383,1.779q-6.21,0-12.419,0h-1.223a4.286,4.286,0,0,1-.028,1.265c-.106.308-.454.532-.7.792-.24-.263-.666-.512-.686-.791-.081-1.114-.03-2.237-.037-3.357a3.456,3.456,0,0,0-2.572-3.587c-.7-.239-1.429-.419-2.12-.688-1.136-.442-2.048-.839-3.082.508-1,1.307-3.15.929-4.128-.517-.407-.6-.734-.6-1.315-.391-1.11.4-2.251.723-3.37,1.1a3.421,3.421,0,0,0-2.529,3.514C-394.044,156.677-394.036,159.084-394.036,161.6Zm6.746-33.514c-1.522.5-3,.957-4.464,1.472A3.328,3.328,0,0,0-394,132.533c.072.908.131,1.817.161,2.727.027.8.005,1.607.005,2.458h3.6c.544-2.969,2.077-5.085,5.236-5.318,3.727-.275,5.6,1.93,6.319,5.291h3.586c0-1.6-.082-3.12.023-4.632a3.074,3.074,0,0,0-1.914-3.4c-1.535-.59-3.117-1.057-4.657-1.571C-383.422,130.646-385.6,130.652-387.29,128.09Zm-1.409-9.732c0,.542-.027,1.085,0,1.624a4.287,4.287,0,0,0,4.1,4.229,4.2,4.2,0,0,0,4.286-3.895,19.4,19.4,0,0,0,0-3.951,4.212,4.212,0,0,0-4.3-3.876,4.293,4.293,0,0,0-4.083,4.245C-388.725,117.273-388.7,117.816-388.7,118.358Zm8.441,21.368h0c0-.577.03-1.155-.005-1.729a4.239,4.239,0,0,0-4.022-4.185,4.139,4.139,0,0,0-4.371,3.9,19.838,19.838,0,0,0,0,3.86,4.078,4.078,0,0,0,4.387,3.863,4.181,4.181,0,0,0,4-4.084C-380.223,140.814-380.258,140.269-380.258,139.726Zm-23.407-4.324h.013c0,.644-.026,1.29,0,1.932a4.129,4.129,0,0,0,3.626,4,4.029,4.029,0,0,0,4.538-3.17,21.39,21.39,0,0,0,.195-4.041,4.162,4.162,0,0,0-4.078-4.4,4.087,4.087,0,0,0-4.295,4.254C-403.677,134.452-403.665,134.927-403.665,135.4Zm38.362.11c0-.61.025-1.222,0-1.831a4.109,4.109,0,0,0-3.556-3.942c-2.262-.211-4.2.957-4.586,3.083a18.486,18.486,0,0,0-.158,4.849,4.115,4.115,0,0,0,4.466,3.671,4.1,4.1,0,0,0,3.836-4C-365.276,136.734-365.3,136.123-365.3,135.512Zm-24.977,3.77c-1.145,0-2.228,0-3.311,0a12.349,12.349,0,0,0-3.018,3.323c-.089.761.125,1.151.951,1.457,2.587.96,5.747,1.023,7.025,4.426.52-.422,1.105-.664,1.235-1.056a1.505,1.505,0,0,0-.679-1.817,4.561,4.561,0,0,1-1.91-3.119C-390.143,141.474-390.18,140.43-390.28,139.282Zm10.009,9.189a5.375,5.375,0,0,1,3.925-3.446c.939-.274,1.879-.558,2.792-.906.431-.164,1.037-.412,1.148-.757a1.533,1.533,0,0,0-.627-1.848,9.892,9.892,0,0,1-1.439-1.675c-.181-.209-.41-.52-.627-.529-1.2-.052-2.409-.025-3.676-.025,0,.71.011,1.281,0,1.852a5.429,5.429,0,0,1-2.133,4.5,1.536,1.536,0,0,0-.638,1.833C-381.424,147.856-380.808,148.075-380.271,148.471Zm-5.631-22.859c.1.969-.368,2.077.755,2.663a1.678,1.678,0,0,0,1.4-.035c1.064-.631.641-1.706.65-2.628Zm.01,21.3c.1.906-.394,1.992.669,2.617a1.734,1.734,0,0,0,1.489,0c1.043-.625.624-1.7.638-2.618Zm15.067-4.113c.071.979-.424,2.054.649,2.631a1.742,1.742,0,0,0,1.494-.055c.954-.617.688-1.626.592-2.576Zm-30.117.018c.038,1.039-.281,2.118.791,2.642a1.755,1.755,0,0,0,1.495-.113c.91-.629.484-1.629.5-2.529Z" transform="translate(3441.496 1151.932)" fill="#dabc64"/>
  </g>
</svg>
