<svg xmlns="http://www.w3.org/2000/svg" width="60" height="60" viewBox="0 0 60 60">
  <g id="earnings-icon" transform="translate(-3027 -1259)">
    <rect id="Rectangle_7176" data-name="Rectangle 7176" width="60" height="60" transform="translate(3027 1259)" fill="#fff" opacity="0"/>
    <g id="Group_41046" data-name="Group 41046" transform="translate(2996.039 1155.006)">
      <path id="Path_41168" data-name="Path 41168" d="M46.11,154.3c-.567,1.842-.948,2.118-2.861,2.118-.754,0-1.508.013-2.261,0a1.923,1.923,0,0,1-2.014-1.979q-.024-7.869,0-15.738a1.945,1.945,0,0,1,2.02-1.991c.782-.032,1.567-.008,2.351-.007,1.844,0,2.413.477,2.73,2.331.3.046.622.111.945.137.292.024.588.005.925.005-.219-8.006,4.2-13.471,9.963-18.215a6.041,6.041,0,0,0-5.022,1.776,1.984,1.984,0,0,0-.159.219c-.257.419-.6.775-1.091.439-.567-.384-.246-.854.044-1.247a6.66,6.66,0,0,1,4.284-2.446c.617-.126,1.251-.166,1.873-.244a2.449,2.449,0,0,0-2.408-1.4,7.992,7.992,0,0,1-3.884-.557,2.835,2.835,0,0,1-.843-.506c-.164-.181-.3-.626-.2-.75.166-.2.65-.417.8-.32,1.437.935,3.05.715,4.623.895a12.48,12.48,0,0,1,3.006,1.177,2.8,2.8,0,0,0-.145-.556c-.535-1.2-1.122-2.384-1.61-3.6a2.7,2.7,0,0,1-.085-1.333,1.2,1.2,0,0,1,1.778-1.023,1.608,1.608,0,0,0,1.688-.115,2.163,2.163,0,0,1,2.469.043,1.388,1.388,0,0,0,1.672,0,2.5,2.5,0,0,1,2.57-.043,2.359,2.359,0,0,0,1.494.12c1.113-.312,1.914.127,1.857,1.3a7.725,7.725,0,0,1-.582,2.51,25.961,25.961,0,0,1-1.384,2.616c.233.946.4,1.712.621,2.461a1.463,1.463,0,0,0,.455.615c.589.515,1.239.967,1.787,1.521.187.19.142.61.2.925-.343.016-.862.185-1,.025-1.223-1.409-2.517-1.466-4.313-.972a12.423,12.423,0,0,1-7.212-.35.891.891,0,0,0-.722.126c-4.216,3.43-7.7,7.387-8.882,12.89A22.16,22.16,0,0,0,49.312,139a.878.878,0,0,0,.464.608c1.5.741,3.064,1.374,4.534,2.175,1.765.961,3.7.96,5.6,1.22,1.579.217,3.172.336,4.748.569a4.22,4.22,0,0,1,3.417,3.915c.02.237.025.475.042.825l5.649-2.468a2.986,2.986,0,0,1,.491-.225c2.712-.623,3.532-2.751,3.959-5.1.857-4.728-.709-8.83-3.436-12.593-.512-.706-1.138-1.33-1.632-2.047a1.124,1.124,0,0,1-.128-.994c.3-.433.733-.25,1.057.113,3.8,4.242,6.2,9.021,5.577,14.9a28.725,28.725,0,0,1-.886,3.7c.37-.139.75-.289,1.135-.423a2.835,2.835,0,0,1,2.517,5.068q-6.092,3.877-12.2,7.734a8.724,8.724,0,0,1-4.791,1.349c-3.106-.005-6.213.058-9.316-.031a13.2,13.2,0,0,1-3.606-.647C50.365,155.951,48.276,155.1,46.11,154.3Zm20.483-5.587c.377-2-.509-3.537-2.156-3.851-.56-.107-1.134-.14-1.7-.206a56.607,56.607,0,0,1-6.437-.814,21.858,21.858,0,0,1-4.512-1.976,11.237,11.237,0,0,0-5.777-1.377,6.645,6.645,0,0,1-.029,1.552c-.09.358-.45.649-.689.97-.2-.315-.558-.619-.584-.948a28.289,28.289,0,0,1-.025-2.982c.02-.777-.329-1.1-1.09-1.069-.723.026-1.448.03-2.17,0-.845-.037-1.185.311-1.176,1.175.032,2.923.012,5.847.012,8.771,0,2.019.019,4.039-.009,6.058-.011.817.319,1.159,1.132,1.119.691-.035,1.386,0,2.079-.008,1.049-.006,1.209-.153,1.212-1.2.008-2.562,0-5.124.005-7.686a2.836,2.836,0,0,1,.073-.893c.066-.192.307-.45.473-.452a.845.845,0,0,1,.64.354,1.853,1.853,0,0,1,.141.869c.011,1.989.029,3.979-.009,5.968a.911.911,0,0,0,.7,1.044c2.149.764,4.266,1.616,6.426,2.346a9.2,9.2,0,0,0,2.728.507c3.224.06,6.45.032,9.675.019a7.255,7.255,0,0,0,3.937-1.114q6.1-3.867,12.192-7.736a2.1,2.1,0,0,0,.645-.608,1.507,1.507,0,0,0-1.953-2.128c-1.224.5-2.433,1.03-3.643,1.56-2.887,1.265-5.672,2.945-8.687,3.686-2.672.657-5.6.285-8.415.32-.179,0-.536-.429-.5-.6a1.112,1.112,0,0,1,.6-.627,1.969,1.969,0,0,1,.8-.045C62.515,148.708,64.533,148.709,66.593,148.709Zm-8.279-35.993a4.269,4.269,0,0,0,.158.894c.486,1.092,1.009,2.168,1.5,3.256a1.823,1.823,0,0,0,1.667,1.143c.63.041,1.255.162,1.885.178,2.41.062,4.433-.528,5.21-3.172.143-.487.377-.946.53-1.431a4.757,4.757,0,0,0,.1-.857,3.039,3.039,0,0,1-2.869-.222,1.255,1.255,0,0,0-1.084.03,2.811,2.811,0,0,1-3.139-.027,1.076,1.076,0,0,0-.917-.054A3.2,3.2,0,0,1,58.314,112.716Zm5.323,8.854c1.131-.166,2.261-.31,3.382-.505a.98.98,0,0,0,.885-1.3c-.157-.691-.659-.768-1.259-.627a12.9,12.9,0,0,1-6.068,0c-.649-.157-1.166-.034-1.31.689-.148.747.294,1.139.968,1.253C61.358,121.266,62.489,121.406,63.637,121.569Z" transform="translate(0)" fill="#dabc64"/>
      <g id="Group_38836" data-name="Group 38836" transform="translate(59.354 127.112)">
        <path id="Path_41171" data-name="Path 41171" d="M157.5,204.339h-5.242a1.75,1.75,0,0,1-.235-.006.388.388,0,0,1-.366-.4.4.4,0,0,1,.4-.364c.069,0,.139,0,.209,0h5.243a3.094,3.094,0,0,0-1.356-2.186,2.918,2.918,0,0,0-1.687-.534q-1.123,0-2.246,0a.535.535,0,0,1-.3-.043c-.11-.088-.247-.228-.247-.346s.137-.256.245-.349c.059-.051.182-.039.276-.039q3.957,0,7.914,0c.086,0,.2-.017.252.03.111.1.254.237.261.366.006.111-.14.254-.252.341a.542.542,0,0,1-.3.041q-1.5,0-3,0h-.215a10.482,10.482,0,0,1,.945,1.242,10.666,10.666,0,0,1,.57,1.479c.575,0,1.21-.014,1.844.011a.564.564,0,0,1,.383.237.383.383,0,0,1-.051.369.668.668,0,0,1-.418.149c-.6.016-1.2.007-1.823.007-.036.167-.068.325-.1.482a3.876,3.876,0,0,1-3.775,3.038c-.448,0-.9,0-1.345,0l-.052.081a3.172,3.172,0,0,1,.26.2q2.383,2.25,4.764,4.5a1.152,1.152,0,0,1,.18.188.359.359,0,0,1-.034.478.345.345,0,0,1-.471.066,1.183,1.183,0,0,1-.18-.151q-2.846-2.691-5.691-5.384c-.137-.13-.249-.271-.162-.48a.427.427,0,0,1,.466-.251q1.084.009,2.168,0a3.174,3.174,0,0,0,3.176-2.656A.9.9,0,0,0,157.5,204.339Z" transform="translate(-151.658 -200.065)" fill="#dabc64"/>
      </g>
    </g>
  </g>
</svg>
