<svg xmlns="http://www.w3.org/2000/svg" width="40" height="40" viewBox="0 0 40 40">
  <g id="edit-icon" transform="translate(-5268 -1229)">
    <rect id="Rectangle_7178" data-name="Rectangle 7178" width="40" height="40" transform="translate(5268 1229)" fill="#fff" opacity="0"/>
    <g id="Group_41060" data-name="Group 41060" transform="translate(5409.008 1335.006)">
      <path id="Path_41166" data-name="Path 41166" d="M-114.521-47.568c0-2.715,0-5.391,0-8.066a3.31,3.31,0,0,1,.01-.546.824.824,0,0,1,.838-.775.835.835,0,0,1,.889.778c.032.38.012.764.012,1.147q0,3.633,0,7.267a1.788,1.788,0,0,1-1.993,1.984h-15.244a1.786,1.786,0,0,1-2-1.979q0-7.649,0-15.3a1.777,1.777,0,0,1,1.964-1.957q4.1,0,8.2,0c.691,0,1.075.388,1.008.988-.054.486-.407.757-1.022.757q-3.879.005-7.758,0h-.612v15.7Z" transform="translate(0 -28.494)"/>
      <path id="Path_41167" data-name="Path 41167" d="M-48.182-97.006a2.973,2.973,0,0,1,2.75,1.849A2.842,2.842,0,0,1-46-91.866c-2.83,2.887-5.7,5.732-8.571,8.584a1.221,1.221,0,0,1-.568.284q-1.883.435-3.775.833A.886.886,0,0,1-60-83.256c.266-1.261.54-2.521.837-3.775a1.427,1.427,0,0,1,.363-.642q4.178-4.206,8.376-8.392A3.214,3.214,0,0,1-48.182-97.006ZM-49.429-90.7l-2.035-2.026a2.586,2.586,0,0,1-.307.463c-1.716,1.728-3.408,3.483-5.177,5.157-.872.825-.724,1.889-1.072,2.943.61-.123,1.082-.244,1.562-.308a2.394,2.394,0,0,0,1.43-.8c1.692-1.727,3.411-3.427,5.127-5.13A2.468,2.468,0,0,1-49.429-90.7Zm1.254-1.475c.3-.3.654-.608.961-.959a1.247,1.247,0,0,0-.007-1.646,1.243,1.243,0,0,0-1.624-.3,11.1,11.1,0,0,0-1.171,1.056Z" transform="translate(-64.114 0)"/>
    </g>
  </g>
</svg>
