<svg xmlns="http://www.w3.org/2000/svg" width="30" height="30" viewBox="0 0 30 30">
  <g id="email-icon" transform="translate(-1148 -1270)">
    <rect id="Rectangle_7175" data-name="Rectangle 7175" width="30" height="30" transform="translate(1148 1270)" fill="#fff" opacity="0"/>
    <g id="Group_41037" data-name="Group 41037" transform="translate(1278.226 1353.863)">
      <path id="Path_37180" data-name="Path 37180" d="M-101.586-60.145a2.529,2.529,0,0,1-.8,1.487,2.451,2.451,0,0,1-1.669.569q-8.554,0-17.107,0c-1.88,0-3.76,0-5.639,0a2.233,2.233,0,0,1-2.176-1.314,2.585,2.585,0,0,1-.236-1.067q-.022-8-.008-16.005a2.308,2.308,0,0,1,2.446-2.382q9.984,0,19.967,0c.917,0,1.835.015,2.752,0a2.33,2.33,0,0,1,2.435,1.96.511.511,0,0,0,.036.1ZM-127.1-77.676l-.046.078a2.162,2.162,0,0,1,.215.154q5.3,4.845,10.608,9.691a1.188,1.188,0,0,0,1.836,0q5.295-4.836,10.588-9.673a2.552,2.552,0,0,1,.234-.171l-.048-.077Zm14.345,9.908c-.362.327-.66.6-.962.87a2.577,2.577,0,0,1-1.371.7,2.4,2.4,0,0,1-2.014-.7l-.957-.867-9.113,8.417.045.077h23.441l.042-.08Zm-15.241-9.089c-.128.432-.109,16.455,0,16.7l9.078-8.389Zm16.1,8.307,9.093,8.4c.119-.39.1-16.419-.031-16.692Z" fill="#818ea1" stroke="#818ea1" stroke-width="0.5"/>
    </g>
  </g>
</svg>
