<svg xmlns="http://www.w3.org/2000/svg" width="40" height="40" viewBox="0 0 40 40">
  <g id="footer-bike-active" transform="translate(-762 -2197)">
    <rect id="Rectangle_7180" data-name="Rectangle 7180" width="40" height="40" transform="translate(762 2197)" fill="#fff" opacity="0"/>
    <g id="Group_41066" data-name="Group 41066" transform="translate(995.839 2229.121)">
      <path id="Path_56395" data-name="Path 56395" d="M-192.809-6.5a6.548,6.548,0,0,1-1.657,3.355,5.664,5.664,0,0,1-8.322-.255,5.657,5.657,0,0,1,.779-8.191c.156-.123.314-.243.513-.4l-.493-1.02A6.452,6.452,0,0,0-204.6-10.3a6.974,6.974,0,0,0-.8,3.472c.019,1.344-.6,1.952-1.953,1.955q-2.912.007-5.824,0c-.965,0-1.357-.364-1.318-1.337a7.529,7.529,0,0,0-1.323-4.926,6.852,6.852,0,0,0-9.388-1.689c-.351.233-.752.706-1.138.164-.4-.562.156-.827.538-1.074.425-.274.877-.508,1.371-.791a1.3,1.3,0,0,1-.856-1.656,2.166,2.166,0,0,1,1.771-1.7,5.483,5.483,0,0,1,1-.056c2.834,0,5.667.007,8.5-.007a.692.692,0,0,0,.521-.261,3.931,3.931,0,0,1,3.787-2.035c1.378.013,2.756,0,4.249,0-.276-.578-.476-1.069-.745-1.518a.74.74,0,0,0-.544-.243c-.825-.026-1.651-.019-2.476-.01-.39,0-.725-.146-.665-.54a.848.848,0,0,1,.618-.528,31.275,31.275,0,0,1,3.211,0,1.044,1.044,0,0,1,.682.5c.375.649.674,1.341.961,1.928.8-.4,1.564-.778,2.326-1.155a.817.817,0,0,1,.189-.068c1.367-.291,1.627-.085,1.628,1.29,0,1.116,0,2.231,0,3.347,0,.872-.216,1.053-1.091.932-.3-.042-.606-.1-1.037-.17l.845,1.8a17.527,17.527,0,0,1,3.192-.36,18.314,18.314,0,0,1,3.283.743c.414.106.733.421.462.827a1,1,0,0,1-.906.136,6.737,6.737,0,0,0-5.377-.2c.222,1.01.267,1.041,1.219.855a5.63,5.63,0,0,1,6.761,4.59,3.106,3.106,0,0,0,.118.374Zm-7.163-4.888c.215.457.451.906.638,1.375a.954.954,0,0,0,1.024.7,2.092,2.092,0,0,1,1.962,2.379A2.217,2.217,0,0,1-198-5.042a2.256,2.256,0,0,1-2.351-.907,2.221,2.221,0,0,1,.067-2.564.775.775,0,0,0,.162-.571c-.257-.628-.578-1.229-.879-1.846a4.5,4.5,0,0,0-1.462,6.147,4.561,4.561,0,0,0,6.165,1.667,4.567,4.567,0,0,0,1.875-6.058A4.446,4.446,0,0,0-199.971-11.389Zm-6.214,2.028a1,1,0,0,0-.2-.066c-1.517-.005-3.035.024-4.55-.031a2.443,2.443,0,0,1-1.274-.442,2.175,2.175,0,0,1-.457-2.35,1.638,1.638,0,0,1,1.719-1.1c2.164-.009,4.329-.033,6.492.012a2.348,2.348,0,0,0,1.9-.716c0-.48-.321-.489-.684-.488-2.543.008-5.087.023-7.63-.009a20.379,20.379,0,0,1-2.1-.256,1.254,1.254,0,0,0-.36.048,7.514,7.514,0,0,1-1.162.211c-1.209.028-2.419.01-3.629.01a8.4,8.4,0,0,1,4.7,8.577c2.076,0,4.058,0,6.041,0,.826,0,1.021-.3.763-1.189-1.009,0-2.032,0-3.056,0-.4,0-.818-.021-.806-.55s.426-.543.828-.541c.87.005,1.741-.018,2.61.01.442.014.745-.041.721-.583A2.177,2.177,0,0,1-206.186-9.361Zm2.77-6.288c-.581-1.173-1.09-2.224-1.63-3.26a.579.579,0,0,0-.444-.2c-1.649,0-3.3-.025-4.947.034a2.514,2.514,0,0,0-2.34,2.328c-.064.734.183,1.087.9,1.093C-209.11-15.636-206.348-15.649-203.416-15.649Zm-20.85-.039h10.283v-1.1a2.274,2.274,0,0,0-.285-.039q-4.373,0-8.746,0C-223.728-16.831-224.108-16.459-224.265-15.688Zm19.574,3.43c-2.156,0-4.2.006-6.248,0-.552,0-.742.275-.75.786-.008.527.091.949.733.952,1.624.006,3.248.007,4.872-.006a.6.6,0,0,0,.433-.193C-205.329-11.191-205.045-11.685-204.692-12.259Zm3.274-5.235V-20.78c-1.377.222-2.3.917-2.235,1.653A2.165,2.165,0,0,0-201.417-17.493Zm4.285,10.4a9.054,9.054,0,0,0-.9-1.058c-.333-.284-.513.038-.72.274-.093.107-.325.08-.474.154s-.395.221-.38.292c.081.409.118.923.385,1.169a1.3,1.3,0,0,0,1.137.164C-197.74-6.227-197.514-6.668-197.133-7.089Z" transform="translate(-3.893 0)"/>
      <path id="Path_56396" data-name="Path 56396" d="M-219.591,59.676a5.7,5.7,0,0,1-5.713,5.667,5.772,5.772,0,0,1-5.672-5.737,5.726,5.726,0,0,1,5.742-5.648A5.656,5.656,0,0,1-219.591,59.676Zm-1.083,0a4.626,4.626,0,0,0-4.56-4.632,4.649,4.649,0,0,0-4.639,4.564,4.678,4.678,0,0,0,4.573,4.642A4.649,4.649,0,0,0-220.674,59.673Z" transform="translate(0 -66.757)"/>
      <path id="Path_56397" data-name="Path 56397" d="M-202.866,84.158a2.2,2.2,0,0,1-2.211-2.266,2.2,2.2,0,0,1,2.268-2.208,2.207,2.207,0,0,1,2.219,2.267A2.213,2.213,0,0,1-202.866,84.158Zm.021-3.374a1.118,1.118,0,0,0-1.147,1.127A1.155,1.155,0,0,0-202.8,83.07a1.111,1.111,0,0,0,1.1-1.171A1.089,1.089,0,0,0-202.845,80.785Z" transform="translate(-22.43 -89.038)"/>
    </g>
  </g>
</svg>
