<svg xmlns="http://www.w3.org/2000/svg" width="40" height="40" viewBox="0 0 40 40">
  <g id="footer-contactus" transform="translate(-762 -2197)">
    <rect id="Rectangle_7180" data-name="Rectangle 7180" width="40" height="40" transform="translate(762 2197)" fill="#fff" opacity="0"/>
    <g id="Group_41064" data-name="Group 41064" transform="translate(-46.904 1796.215)">
      <path id="Path_56370" data-name="Path 56370" d="M828.458,432.365c-4.167,0-8.333.01-12.5,0A3.851,3.851,0,0,1,812,429.3a4.183,4.183,0,0,1-.087-.957q-.008-7.251,0-14.5a3.85,3.85,0,0,1,4.022-4.046q12.534-.016,25.068,0a3.877,3.877,0,0,1,4.037,3.983q.043,7.285,0,14.571a3.889,3.889,0,0,1-4.08,4.014C836.791,432.378,832.625,432.365,828.458,432.365Zm-15.013-17.3v.767q0,6.109,0,12.219a2.453,2.453,0,0,0,2.766,2.752H840.65c1.914,0,2.791-.864,2.792-2.764q0-6.109,0-12.219c0-.216-.022-.432-.039-.719-.3.154-.525.26-.741.38-4.473,2.492-8.95,4.977-13.412,7.49a1.428,1.428,0,0,1-1.588-.007c-4.482-2.523-8.98-5.018-13.474-7.52C813.974,415.331,813.752,415.227,813.446,415.07Zm29.962-1.795a2.356,2.356,0,0,0-2.423-1.938c-1.174-.009-2.347,0-3.521,0q-10.7,0-21.4-.005a2.463,2.463,0,0,0-2.232,1.117c-.436.664-.4.783.276,1.16q6.92,3.856,13.835,7.722A.932.932,0,0,0,829,421.31c3.08-1.737,6.175-3.448,9.264-5.168C839.972,415.194,841.674,414.243,843.407,413.275Z" transform="translate(0 0)" fill="#818181"/>
    </g>
  </g>
</svg>
