<svg xmlns="http://www.w3.org/2000/svg" width="40" height="40" viewBox="0 0 40 40">
  <g id="footer-refferal" transform="translate(-762 -2197)">
    <rect id="Rectangle_7180" data-name="Rectangle 7180" width="40" height="40" transform="translate(762 2197)" fill="#fff" opacity="0"/>
    <g id="Group_41065" data-name="Group 41065" transform="translate(-41.016 1787.022)">
      <path id="Path_56371" data-name="Path 56371" d="M822.727,440.665a7.713,7.713,0,0,1-1.85-1.23,2.512,2.512,0,0,1,1.016-3.853.794.794,0,0,0,.547-.886c-.028-1.182-.01-2.366-.01-3.549a6.773,6.773,0,0,0-6.242,5.876c-.145,1.536-.145,1.536-1.725,1.536q-4.677,0-9.354,0c-.974,0-1.105-.142-1.092-1.125a19,19,0,0,1,37.48-3.883,25.919,25.919,0,0,1,.519,3.883c.086.976-.1,1.124-1.077,1.125q-4.9,0-9.8,0c-1.1,0-1.156-.054-1.251-1.164a6.841,6.841,0,0,0-4.764-6.017c-.461-.147-.95-.207-1.506-.324,0,1.4-.01,2.706.015,4.013,0,.138.185.321.33.4a2.65,2.65,0,0,1-.538,5.1c-.041.012-.071.062-.106.095ZM811,424.9l6.837,6.841a8.319,8.319,0,0,1,4.589-1.874v-1.1c0-1.484-.026-2.968.028-4.45.009-.244.367-.476.563-.713a3.183,3.183,0,0,1,.576.715,2.238,2.238,0,0,1,.021.808v4.767a8.315,8.315,0,0,1,4.576,1.814l6.853-6.844C828.276,418.232,816.858,418.845,811,424.9Zm-1.093.984a17.557,17.557,0,0,0-4.7,11.442h9.751a8.162,8.162,0,0,1,1.839-4.556Zm30.94,11.45a17.649,17.649,0,0,0-4.694-11.425l-6.9,6.888a8.166,8.166,0,0,1,1.85,4.537Zm-17.808-.843a1.446,1.446,0,0,0-1.5,1.418,1.479,1.479,0,1,0,2.957.038A1.446,1.446,0,0,0,823.043,436.492Z" transform="translate(0 0)" fill="#818181"/>
    </g>
  </g>
</svg>
