<svg xmlns="http://www.w3.org/2000/svg" width="40" height="40" viewBox="0 0 40 40">
  <g id="footer-home" transform="translate(-762 -2197)">
    <rect id="Rectangle_7180" data-name="Rectangle 7180" width="40" height="40" transform="translate(762 2197)" fill="#fff" opacity="0"/>
    <path id="Path_56416" data-name="Path 56416" d="M27.359,10.786l0,0L16.305-.267a2.494,2.494,0,0,0-3.527,0L1.733,10.778l-.011.011a2.493,2.493,0,0,0,1.66,4.249c.026,0,.051,0,.077,0H3.9v8.133a2.922,2.922,0,0,0,2.919,2.919h4.324a.794.794,0,0,0,.794-.794V18.924a1.333,1.333,0,0,1,1.332-1.332h2.55a1.333,1.333,0,0,1,1.332,1.332V25.3a.794.794,0,0,0,.794.794h4.324a2.922,2.922,0,0,0,2.919-2.919V15.042h.408a2.495,2.495,0,0,0,1.765-4.257Zm-1.124,2.4a.9.9,0,0,1-.641.266h-1.2a.794.794,0,0,0-.794.794v8.926a1.333,1.333,0,0,1-1.332,1.331h-3.53V18.924A2.922,2.922,0,0,0,15.817,16h-2.55a2.923,2.923,0,0,0-2.919,2.919v5.582H6.817a1.333,1.333,0,0,1-1.332-1.331V14.249a.794.794,0,0,0-.794-.794H3.511l-.037,0a.906.906,0,0,1-.624-1.547h0L13.9.855a.906.906,0,0,1,1.282,0L26.231,11.9l.005,0A.909.909,0,0,1,26.235,13.189Z" transform="translate(767.003 2203.998)" fill="#818181"/>
  </g>
</svg>
