<svg xmlns="http://www.w3.org/2000/svg" width="40" height="40" viewBox="0 0 40 40">
  <g id="home-icon" transform="translate(-3502 -1267)">
    <rect id="Rectangle_7177" data-name="Rectangle 7177" width="40" height="40" transform="translate(3502 1267)" fill="#fff" opacity="0"/>
    <g id="Group_41053" data-name="Group 41053" transform="translate(2827.431 911.689)">
      <path id="Path_36890" data-name="Path 36890" d="M704.352,377.445v.49c0,2.326,0,4.652,0,6.978a2.7,2.7,0,0,1-2.718,2.825c-1.328.04-2.658.019-3.987.008-.6,0-.864-.291-.866-.906-.005-1.878,0-3.755,0-5.633a1.289,1.289,0,0,0-1.461-1.469c-.681,0-1.362-.005-2.044,0a1.263,1.263,0,0,0-1.394,1.385c0,1.861,0,3.722,0,5.583,0,.8-.238,1.041-1.034,1.044-1.18,0-2.359.006-3.539,0a2.753,2.753,0,0,1-3-3q0-3.414,0-6.829v-.545a6.672,6.672,0,0,1-.834-.077,2.348,2.348,0,0,1-1.209-3.957q1.51-1.521,3.03-3.033c2.4-2.4,4.828-4.761,7.175-7.205a2.6,2.6,0,0,1,3.737.008c3.339,3.427,6.755,6.779,10.132,10.169a2.337,2.337,0,0,1-.557,3.809A7.9,7.9,0,0,1,704.352,377.445Zm-13.968,8.78v-.56c0-1.545-.005-3.09,0-4.635a2.607,2.607,0,0,1,2.29-2.7,14.144,14.144,0,0,1,3.226-.019,2.634,2.634,0,0,1,2.368,2.791c0,1.529,0,3.057,0,4.586v.552c1.216,0,2.376.036,3.532-.015a1.128,1.128,0,0,0,1.049-1.186c.015-.714,0-1.429,0-2.143,0-2.044,0-4.087,0-6.131,0-.633.28-.906.91-.916a4.706,4.706,0,0,0,.993-.021,1.21,1.21,0,0,0,.711-.44c.274-.447.046-.833-.306-1.184q-5.014-5-10.013-10.006c-.636-.636-1.022-.631-1.672.019l-9.939,9.938c-.094.094-.24.175-.27.287a1.574,1.574,0,0,0-.116.875,1.208,1.208,0,0,0,.707.509,2.78,2.78,0,0,0,.841.021c.859,0,1.09.23,1.09,1.089q0,3.987,0,7.975c0,.706.356,1.264.975,1.3C687.96,386.268,689.153,386.225,690.383,386.225Z" transform="translate(0 0)" fill="#dcc268"/>
    </g>
  </g>
</svg>
