<svg xmlns="http://www.w3.org/2000/svg" width="40" height="40" viewBox="0 0 40 40">
  <g id="location-icon" transform="translate(-7536 -2356)">
    <g id="Rectangle_7179" data-name="Rectangle 7179" transform="translate(7536 2356)" fill="#fff" stroke="#707070" stroke-width="1" opacity="0">
      <rect width="40" height="40" stroke="none"/>
      <rect x="0.5" y="0.5" width="39" height="39" fill="none"/>
    </g>
    <g id="Group_41062" data-name="Group 41062" transform="translate(7749.982 2527.722)">
      <path id="Path_56402" data-name="Path 56402" d="M-194.457-138.038a2.647,2.647,0,0,1-.472-.425c-2.07-3.034-4.186-6.038-6.172-9.126a18.965,18.965,0,0,1-2.718-6.7,9.792,9.792,0,0,1,7.6-11.243,9.743,9.743,0,0,1,11.6,8.017,11.806,11.806,0,0,1-1.02,6.522,43.045,43.045,0,0,1-4.823,8.162q-1.472,2.1-2.96,4.194a5.178,5.178,0,0,1-.6.6Zm.219-2.236c.993-1.4,1.963-2.738,2.9-4.1a37.077,37.077,0,0,0,4.392-7.664,9.534,9.534,0,0,0,.644-5.7,8.114,8.114,0,0,0-9.425-6.275,8.2,8.2,0,0,0-6.645,7.727,11.89,11.89,0,0,0,1.056,4.808,44.763,44.763,0,0,0,4.949,8.219C-195.674-142.276-194.971-141.3-194.239-140.275Z" transform="translate(0 0)" fill="#818fa1"/>
      <path id="Path_56403" data-name="Path 56403" d="M-154.17-111.261a4.933,4.933,0,0,1-4.83-4.9A4.933,4.933,0,0,1-154.061-121a4.932,4.932,0,0,1,4.8,4.925A4.931,4.931,0,0,1-154.17-111.261Zm.023-8.118a3.213,3.213,0,0,0-3.229,3.265,3.214,3.214,0,0,0,3.266,3.23,3.213,3.213,0,0,0,3.229-3.266A3.212,3.212,0,0,0-154.147-119.38Z" transform="translate(-40.112 -39.877)" fill="#818fa1"/>
    </g>
  </g>
</svg>
