<svg xmlns="http://www.w3.org/2000/svg" width="40" height="40" viewBox="0 0 40 40">
  <g id="menu-icon" transform="translate(-3502 -1267)">
    <rect id="Rectangle_7177" data-name="Rectangle 7177" width="40" height="40" transform="translate(3502 1267)" fill="#fff" opacity="0"/>
    <g id="Group_41051" data-name="Group 41051" transform="translate(3665.04 1366.934)">
      <path id="Path_41157" data-name="Path 41157" d="M-143.425,71.888q5.4,0,10.791,0a1.53,1.53,0,0,1,1.718,1.525,1.566,1.566,0,0,1-1.7,1.517q-10.864,0-21.729,0a1.582,1.582,0,0,1-1.683-1.324,1.5,1.5,0,0,1,1.036-1.637,2.447,2.447,0,0,1,.722-.078Q-148.845,71.884-143.425,71.888Z" transform="translate(0 -145.039)" fill="#fff"/>
      <path id="Path_41158" data-name="Path 41158" d="M-143.485-85.89q-5.4,0-10.791,0a1.532,1.532,0,0,1-1.718-1.526,1.566,1.566,0,0,1,1.7-1.516q10.864,0,21.729,0a1.58,1.58,0,0,1,1.682,1.323,1.5,1.5,0,0,1-1.036,1.637,2.457,2.457,0,0,1-.722.079Q-138.066-85.886-143.485-85.89Z" transform="translate(-0.04 0)" fill="#fff"/>
      <path id="Path_41159" data-name="Path 41159" d="M-143.435-5.453q-5.321,0-10.642,0c-1.047,0-1.565-.336-1.806-1.148a1.482,1.482,0,0,1,1.15-1.839,4.38,4.38,0,0,1,.683-.048q10.667,0,21.334,0c1.066,0,1.572.317,1.82,1.126A1.47,1.47,0,0,1-132.06-5.5a5.524,5.524,0,0,1-.781.047Q-138.138-5.45-143.435-5.453Z" transform="translate(-0.091 -72.548)" fill="#fff"/>
    </g>
  </g>
</svg>
