<svg xmlns="http://www.w3.org/2000/svg" width="40" height="40" viewBox="0 0 40 40">
  <g id="offer-icon" transform="translate(-3502 -1267)">
    <rect id="Rectangle_7177" data-name="Rectangle 7177" width="40" height="40" transform="translate(3502 1267)" fill="#fff" opacity="0"/>
    <g id="Group_41058" data-name="Group 41058" transform="translate(3745 1439)">
      <path id="Path_56398" data-name="Path 56398" d="M-209.449-148.192v.336a3.034,3.034,0,0,1-2.008,2.39c-.441.193-.847.466-1.286.668a1.246,1.246,0,0,0-.729,1.042q-.158,1.018-.346,2.031a2.429,2.429,0,0,1-2.721,2.074,12.111,12.111,0,0,1-1.6-.215,2.014,2.014,0,0,0-2.184.654,5.031,5.031,0,0,1-2.564,1.883h-.672a4.006,4.006,0,0,1-1.9-1.2,11.3,11.3,0,0,0-1.171-1.118,1.4,1.4,0,0,0-.843-.306,16.966,16.966,0,0,0-1.818.258c-1.78.278-3.03-.453-3.332-1.967-.134-.673-.25-1.351-.344-2.031a1.3,1.3,0,0,0-.78-1.127c-.423-.188-.811-.457-1.236-.642A3.043,3.043,0,0,1-237-147.856v-.336c.42-.965.822-1.939,1.27-2.891a1.242,1.242,0,0,0,0-1.162c-.448-.952-.85-1.926-1.27-2.891v-.336a3.044,3.044,0,0,1,2.015-2.393c.425-.184.813-.452,1.236-.642a1.273,1.273,0,0,0,.774-1.071c.1-.679.218-1.356.345-2.031a2.431,2.431,0,0,1,2.725-2.068,12,12,0,0,1,1.6.217,2.013,2.013,0,0,0,2.182-.658A5.036,5.036,0,0,1-223.56-166h.672a4.005,4.005,0,0,1,1.9,1.2,11.316,11.316,0,0,0,1.172,1.118,1.4,1.4,0,0,0,.844.307,16.882,16.882,0,0,0,1.819-.26c1.781-.28,3.022.448,3.328,1.972q.2,1.01.345,2.032a1.3,1.3,0,0,0,.786,1.123c.424.188.812.457,1.236.642a3.033,3.033,0,0,1,2.008,2.39v.336c-.42.965-.822,1.939-1.27,2.891a1.243,1.243,0,0,0,0,1.161C-210.271-150.131-209.869-149.157-209.449-148.192Zm-7.1,6.94c.761.023,1.045-.215,1.158-.882.081-.476.192-.95.235-1.43a3.221,3.221,0,0,1,2.145-2.929,11.624,11.624,0,0,0,1.335-.7.878.878,0,0,0,.418-1.312c-.309-.656-.636-1.3-.955-1.954a2.612,2.612,0,0,1,0-2.417c.312-.634.63-1.265.934-1.9a.9.9,0,0,0-.454-1.383c-.636-.349-1.283-.679-1.92-1.026a2.456,2.456,0,0,1-1.333-1.764c-.132-.712-.268-1.424-.4-2.137-.153-.854-.448-1.088-1.292-.976-.645.085-1.287.2-1.931.294a2.564,2.564,0,0,1-2.273-.659q-.768-.736-1.534-1.474c-.624-.6-1.008-.607-1.62-.017-.5.479-1,.955-1.49,1.438a2.629,2.629,0,0,1-2.419.7c-.7-.116-1.4-.224-2.1-.286a.843.843,0,0,0-1.017.793,14.3,14.3,0,0,0-.232,1.43,3.238,3.238,0,0,1-2.131,3,12,12,0,0,0-1.334.7.891.891,0,0,0-.435,1.349c.3.638.619,1.27.934,1.9a2.628,2.628,0,0,1,0,2.467c-.315.632-.631,1.264-.933,1.9a.888.888,0,0,0,.439,1.347c.619.342,1.241.679,1.872,1a2.623,2.623,0,0,1,1.461,1.991c.121.677.235,1.355.35,2.033.123.72.414.963,1.143.9a7.831,7.831,0,0,0,1.213-.181,3.4,3.4,0,0,1,3.766,1.131,10.91,10.91,0,0,0,.918.9c.594.573,1,.577,1.58.016q.767-.737,1.531-1.477a2.606,2.606,0,0,1,2.371-.682C-217.842-141.436-217.142-141.341-216.545-141.253Z" transform="translate(0 0)" fill="#dcc369"/>
      <path id="Path_56399" data-name="Path 56399" d="M-168.888-80.892c-.748,0-1.155-.63-.887-1.143a2.236,2.236,0,0,1,.417-.518q5.183-5.191,10.374-10.373c.169-.168.363-.389.57-.421a1.018,1.018,0,0,1,.793.171,1.155,1.155,0,0,1,.2.838c-.024.2-.255.4-.423.567q-5.182,5.192-10.375,10.372A5.266,5.266,0,0,1-168.888-80.892Z" transform="translate(-59.621 -64.503)" fill="#dcc369"/>
      <path id="Path_56400" data-name="Path 56400" d="M-164.266-101.114a2.969,2.969,0,0,1-3.019,2.991,2.964,2.964,0,0,1-2.966-2.987,2.95,2.95,0,0,1,2.99-3.009A2.953,2.953,0,0,1-164.266-101.114Zm-3,1.375a1.4,1.4,0,0,0,1.409-1.36,1.432,1.432,0,0,0-1.412-1.427,1.424,1.424,0,0,0-1.378,1.4A1.4,1.4,0,0,0-167.27-99.74Z" transform="translate(-59.273 -54.95)" fill="#dcc369"/>
      <path id="Path_56401" data-name="Path 56401" d="M-105.212-22.415a2.949,2.949,0,0,1-3.017,2.982,2.949,2.949,0,0,1-2.966-3.031,2.962,2.962,0,0,1,2.988-2.963A2.965,2.965,0,0,1-105.212-22.415Zm-1.6,0a1.4,1.4,0,0,0-1.366-1.4,1.4,1.4,0,0,0-1.424,1.345,1.432,1.432,0,0,0,1.4,1.442A1.423,1.423,0,0,0-106.812-22.411Z" transform="translate(-111.713 -124.827)" fill="#dcc369"/>
    </g>
  </g>
</svg>
