<svg xmlns="http://www.w3.org/2000/svg" width="30" height="30" viewBox="0 0 30 30">
  <g id="password-icon" transform="translate(-1148 -1270)">
    <rect id="Rectangle_7175" data-name="Rectangle 7175" width="30" height="30" transform="translate(1148 1270)" fill="#fff" opacity="0"/>
    <g id="Group_41038" data-name="Group 41038" transform="translate(1213.345 1377.078)">
      <path id="Path_37182" data-name="Path 37182" d="M-58.052-94.677c0-.108,0-.219,0-.331.007-1.174-.029-2.351.028-3.523a7.612,7.612,0,0,1,6.114-7.086,7.679,7.679,0,0,1,9.168,6.3,10.034,10.034,0,0,1,.1,1.443c.015.966,0,1.932,0,2.9v.284a8.367,8.367,0,0,1,.938.223,2.506,2.506,0,0,1,1.632,2.486c.006,1.279,0,2.558,0,3.837q0,3.538,0,7.076a2.467,2.467,0,0,1-1.453,2.432,2.766,2.766,0,0,1-1.122.249q-7.7.024-15.406.008a2.518,2.518,0,0,1-2.575-2.632c-.011-1.5,0-2.993,0-4.49,0-2.16,0-4.32,0-6.48a2.511,2.511,0,0,1,1.847-2.559C-58.559-94.6-58.331-94.627-58.052-94.677Zm7.707,1.743h-7.5c-.789,0-1.061.268-1.061,1.055q0,5.371,0,10.742c0,.765.284,1.046,1.047,1.046h15.036c.763,0,1.047-.281,1.048-1.046q0-5.385,0-10.771c0-.75-.282-1.026-1.034-1.026Zm5.982-1.724c0-1.253.034-2.475-.006-3.7a5.957,5.957,0,0,0-7.243-5.579,5.927,5.927,0,0,0-4.72,5.89c-.01,1.042,0,2.084,0,3.127,0,.082.012.164.02.258Z" transform="translate(0 0)" fill="#818fa1"/>
      <path id="Path_37183" data-name="Path 37183" d="M42.8,103.506a1.028,1.028,0,0,1,0-.142,1.059,1.059,0,0,0-.617-1.244,2.433,2.433,0,0,1-.917-3.026,2.541,2.541,0,0,1,2.708-1.578,2.509,2.509,0,0,1,2.227,2.2,2.537,2.537,0,0,1-1.524,2.688.362.362,0,0,0-.161.268c-.015.539,0,1.079-.009,1.619a.855.855,0,1,1-1.707.01C42.8,104.036,42.8,103.771,42.8,103.506Zm.845-2.594a.8.8,0,0,0,.862-.84.853.853,0,1,0-1.706-.018A.8.8,0,0,0,43.646,100.911Z" transform="translate(-94 -187.862)" fill="#818fa1"/>
    </g>
  </g>
</svg>
