<svg xmlns="http://www.w3.org/2000/svg" width="60" height="60" viewBox="0 0 60 60">
  <g id="payout-icon" transform="translate(-3027 -1259)">
    <rect id="Rectangle_7176" data-name="Rectangle 7176" width="60" height="60" transform="translate(3027 1259)" fill="#fff" opacity="0"/>
    <g id="Group_41048" data-name="Group 41048" transform="translate(3468.007 1345.033)">
      <path id="Path_56377" data-name="Path 56377" d="M-373.426-67.982l-4.941,1.495c0,1.866,0,3.9,0,5.936,0,1.175-.287,1.459-1.479,1.461q-4.445.006-8.89,0c-.031,0-.062,0-.093,0-.685.038-1.334-.138-1.349-.91s.622-.955,1.314-.947c1.326.015,2.652,0,4.044,0a5.664,5.664,0,0,1,4.511-4.55c.237-1.419.236-1.417-.957-1.927a2.38,2.38,0,0,1-.736-.372c-.991-.964-2.068-.782-3.21-.343a12.841,12.841,0,0,1-2.03.6c-.653.133-1.329.152-2.1.233a3.628,3.628,0,0,1-2.06,3.486,4.84,4.84,0,0,1-2.745.3,3.669,3.669,0,0,1-2.7-4.643c.6-2.2,2.61-3.118,5.169-2.5l1.855-2.69h-1.747c-3.056,0-6.112.01-9.168-.009-.556,0-.838.086-1.026.724a5.291,5.291,0,0,1-3.766,3.732c-.147.044-.293.093-.436.149a.913.913,0,0,0-.168.122V-65.7a11.328,11.328,0,0,1,2.579,1.444,9.8,9.8,0,0,1,1.8,2.721c.218.442.367.614.835.6.987-.025,1.975,0,2.963-.009.674-.005,1.225.246,1.206.963-.017.654-.549.895-1.186.893-2.932-.006-5.865,0-8.8-.007-.924,0-1.269-.361-1.271-1.3q-.012-6.714,0-13.428c0-1,.263-1.262,1.27-1.271,1.79-.017,3.582.029,5.37-.03a2.009,2.009,0,0,0,1.263-.532,13.917,13.917,0,0,1,10.348-4.36c7.532-.024,15.064-.008,22.6-.007,1.305,0,1.578.27,1.579,1.559q0,5.278,0,10.557c0,1.187-.233,1.424-1.387,1.428-1.543,0-3.087,0-4.63,0C-373.268-66.482-373.268-66.482-373.426-67.982Zm-24.406-7.324c.1.109.126.151.146.15,5.527-.177,11.081.642,16.588-.46a1.3,1.3,0,0,1,1.067.528c.306.512-.053.929-.571,1.146a6.482,6.482,0,0,1-.706.214c-2.39.692-4.782,1.374-7.168,2.08-.914.27-1.3.91-1.058,1.636.256.757.86,1.021,1.784.758,1.3-.37,2.607-.72,3.89-1.143a1.626,1.626,0,0,1,1.751.363,5.983,5.983,0,0,0,8.079-.163,2.326,2.326,0,0,0,.622-1.414c.083-1.384.029-2.776.029-4.165v-2.385c-6.042,0-11.938-.085-17.83.04A10.412,10.412,0,0,0-397.832-75.307Zm26.215-2.823c0,3.18-.008,6.289.021,9.4a.7.7,0,0,0,.482.479c1.194.043,2.39.022,3.63.022v-9.9ZM-393.2-69.095a2.014,2.014,0,0,0-2.007,1.992,2.073,2.073,0,0,0,2.04,1.987,2.055,2.055,0,0,0,2-2.02A2,2,0,0,0-393.2-69.095ZM-406.11-73.3v2.654a3.02,3.02,0,0,0,2.523-2.654Zm-.018,12.3h2.618a3.106,3.106,0,0,0-2.618-2.515Zm23.305-.014h2.569v-2.529A3.1,3.1,0,0,0-382.823-61.019Z" transform="translate(-21.989)" fill="#dabc64"/>
      <path id="Path_56378" data-name="Path 56378" d="M-427.094,55.315a12.34,12.34,0,0,0,1.474-1.1,1.474,1.474,0,0,0,.343-.96c.026-2.9.011-5.8.017-8.707,0-1.322.187-1.505,1.5-1.506q10.837,0,21.675,0c1.209,0,1.482.265,1.485,1.459.008,2.717,0,5.434,0,8.151v1c2.5-.053,3.9,1.211,3.762,3.318a2.122,2.122,0,0,1-.157.714c-2.181,4.924-5.433,8.649-11.015,9.7a15.149,15.149,0,0,1-2.755.271q-11.347.032-22.694.011c-1.284,0-1.553-.277-1.554-1.585q0-5.28,0-10.56c0-1.163.242-1.4,1.414-1.4q2.5-.006,5,0C-427.459,54.133-427.376,54.2-427.094,55.315Zm3.634-2.174a.755.755,0,0,0,.212.066,4.361,4.361,0,0,0,.457-.058c2.482-.432,4.9-.051,6.583,1.8a4.961,4.961,0,0,0,4.625,1.612,9.625,9.625,0,0,1,1.3,0,3.116,3.116,0,0,1,3.033,2.61,7.534,7.534,0,0,1,.01,1.254l.2.164a14.286,14.286,0,0,0,1.654-1.5c.9-1.1,1.727-2.251,2.524-3.423a2.585,2.585,0,0,0,.446-1.334c.039-2.87.021-5.74.018-8.61,0-.265-.035-.529-.052-.781H-408.4a.9.9,0,0,0-.081.222c-.008,1.3-.009,2.592-.019,3.888-.009,1.165-.58,1.627-1.552,1.032a5.108,5.108,0,0,0-5.738-.011c-1.037.611-1.608.153-1.614-1.062-.006-1.348,0-2.7,0-4.052h-6.054Zm-3.748,12.638c.27.02.42.041.57.041q8.1,0,16.2,0a11.825,11.825,0,0,0,6.755-2.141c2.262-1.524,3.566-3.789,4.792-6.119.448-.852.338-1.559-.327-1.933-.8-.449-1.341-.038-1.8.589l-2.794,3.8a5.381,5.381,0,0,1-3.942,2.5c-2.8.171-5.6.134-8.408.127-.587,0-.829-.5-.714-1.071.137-.684.7-.7,1.233-.7,1.728-.011,3.457.009,5.184-.013.939-.012,1.4-.445,1.4-1.228s-.466-1.213-1.4-1.221c-1.358-.012-2.717-.035-4.073.008a1.736,1.736,0,0,1-1.667-.886,6.156,6.156,0,0,0-8.859-1.507,4.338,4.338,0,0,0-2.115,3.015C-427.309,61.249-427.207,63.473-427.207,65.779Zm-5.9-.034h4.134c0-3.148.008-6.258-.021-9.367a.7.7,0,0,0-.483-.478c-1.194-.042-2.39-.022-3.629-.022Zm17.565-17.56a3.879,3.879,0,0,1,5.213-.037V44.938h-5.213Z" transform="translate(0 -100.269)" fill="#dabc64"/>
      <path id="Path_56379" data-name="Path 56379" d="M-331.944,24.149c-.6.38-.978.808-1.27.755a1.288,1.288,0,0,1-.783-.879.711.711,0,0,1,.9-.834C-332.751,23.262-332.478,23.685-331.944,24.149Z" transform="translate(-82.279 -84.08)" fill="#dabc64"/>
    </g>
  </g>
</svg>
