<svg xmlns="http://www.w3.org/2000/svg" width="30" height="30" viewBox="0 0 30 30">
  <g id="phone-icon" transform="translate(-1148 -1270)">
    <rect id="Rectangle_7175" data-name="Rectangle 7175" width="30" height="30" transform="translate(1148 1270)" fill="#fff" opacity="0"/>
    <g id="Group_41035" data-name="Group 41035" transform="translate(1264.984 1388.35)">
      <path id="Path_37188" data-name="Path 37188" d="M85.241-115c.525.136,1.057.254,1.575.413a12.164,12.164,0,0,1,4.519,2.538,12.547,12.547,0,0,1,3.251,4.435,12.934,12.934,0,0,1,.849,2.8,1.37,1.37,0,0,0,.046.15v.137c-.006.005-.014.009-.016.016-.141.39-.37.581-.674.561-.371-.024-.589-.236-.671-.68a11,11,0,0,0-1.9-4.48A10.954,10.954,0,0,0,87.293-113a21.015,21.015,0,0,0-2.195-.647c-.42-.115-.639-.288-.676-.6s.109-.549.5-.749Z" transform="translate(-186.17 0)" fill="#818fa1"/>
      <path id="Path_37189" data-name="Path 37189" d="M-106.711-85.067a15.255,15.255,0,0,0,6.3,6.276,1.824,1.824,0,0,1,.2-.286c.523-.517,1.034-1.048,1.587-1.532a2.06,2.06,0,0,1,2.784.035q1.621,1.546,3.16,3.176A2.085,2.085,0,0,1-92.6-74.6a26.415,26.415,0,0,1-2.2,2.265,3.6,3.6,0,0,1-2.865.825,13.559,13.559,0,0,1-5.4-1.9,22.419,22.419,0,0,1-5.581-4.373,22,22,0,0,1-4.645-7.22,9.469,9.469,0,0,1-.679-3.093,3.728,3.728,0,0,1,1.02-2.849c.616-.628,1.21-1.283,1.872-1.858a2.135,2.135,0,0,1,3.126.045c1.044.98,2.048,2.007,3.023,3.055a2.072,2.072,0,0,1,.007,2.822c-.516.584-1.086,1.121-1.633,1.679C-106.6-85.161-106.656-85.117-106.711-85.067Zm-5.94-3.11c.025.264.046.528.076.791a3.111,3.111,0,0,0,.064.335,14.7,14.7,0,0,0,1.888,4.48,22.294,22.294,0,0,0,9.261,8.552,10.746,10.746,0,0,0,3.793,1.188,2.54,2.54,0,0,0,2.194-.752c.493-.515,1-1.019,1.494-1.529.063-.065.124-.133.181-.2a.9.9,0,0,0-.026-1.291c-.411-.445-.848-.867-1.276-1.3-.53-.532-1.057-1.067-1.6-1.59a.868.868,0,0,0-1.28-.033c-.081.069-.156.145-.231.219-.521.519-1.038,1.043-1.563,1.558a1,1,0,0,1-1.248.206c-.318-.161-.636-.321-.942-.5a16.328,16.328,0,0,1-3.644-3.026,13.124,13.124,0,0,1-2.408-3.426,1.112,1.112,0,0,1,.294-1.541c.544-.528,1.09-1.055,1.612-1.6a.863.863,0,0,0,0-1.314c-.05-.057-.1-.113-.155-.166q-1.285-1.288-2.572-2.576a.982.982,0,0,0-1.611,0c-.49.486-.967.985-1.467,1.461A2.582,2.582,0,0,0-112.651-88.178Z" transform="translate(0 -20.205)" fill="#818fa1"/>
      <path id="Path_37190" data-name="Path 37190" d="M82.125-46.311a10.917,10.917,0,0,1,1.1.291,7.578,7.578,0,0,1,5,5.43c.041.153.071.31.1.466a.673.673,0,0,1-.487.808.66.66,0,0,1-.794-.472c-.11-.369-.168-.757-.307-1.115a6.256,6.256,0,0,0-4.813-4.087.667.667,0,0,1-.583-.818A.719.719,0,0,1,82.125-46.311Z" transform="translate(-183.27 -64.458)" fill="#818fa1"/>
    </g>
  </g>
</svg>
