<svg xmlns="http://www.w3.org/2000/svg" width="40" height="40" viewBox="0 0 40 40">
  <g id="privacy-icon" transform="translate(-3502 -1267)">
    <rect id="Rectangle_7177" data-name="Rectangle 7177" width="40" height="40" transform="translate(3502 1267)" fill="#fff" opacity="0"/>
    <g id="Group_41056" data-name="Group 41056" transform="translate(2794.042 873.809)">
      <path id="Path_36902" data-name="Path 36902" d="M847.957,373.745a27.386,27.386,0,0,1-.855,8.734,15.448,15.448,0,0,1-9.165,10.173c-2.459,1.084-2.479,1.082-4.943,0a15.678,15.678,0,0,1-9.758-12.923,43.661,43.661,0,0,1-.251-8.977,3.028,3.028,0,0,1,2.814-2.794,12.757,12.757,0,0,0,7.312-2.6c.344-.276.67-.577,1.007-.863a1.835,1.835,0,0,1,2.688,0,11.209,11.209,0,0,0,4.437,2.7,27.849,27.849,0,0,0,3.889.737,3.124,3.124,0,0,1,2.813,2.808C848.009,371.743,847.957,372.746,847.957,373.745Zm-12.471-8.137c-.311.266-.576.484-.833.712a11.816,11.816,0,0,1-4.851,2.666c-1.18.312-2.406.455-3.615.654-1.124.185-1.5.553-1.531,1.7a48.713,48.713,0,0,0,.292,8.171,14.172,14.172,0,0,0,8.715,11.581,3.964,3.964,0,0,0,3.622-.01,14.026,14.026,0,0,0,8.054-8.735,23.686,23.686,0,0,0,.959-6.357c.047-1.441.02-2.885-.006-4.327-.029-1.593-.424-1.974-2.026-2.079a14,14,0,0,1-4.3-.988A13.836,13.836,0,0,1,835.485,365.608Z" transform="translate(-107.471 34.503)" fill="#dcc268"/>
      <path id="Path_36903" data-name="Path 36903" d="M903.982,476.223c1.74-1.741,3.44-3.442,5.142-5.143a9.158,9.158,0,0,1,.7-.679,1.4,1.4,0,0,1,2.014.081,1.377,1.377,0,0,1-.026,2.011c-1.056,1.107-2.154,2.175-3.235,3.258-1.151,1.152-2.292,2.315-3.459,3.449a1.437,1.437,0,0,1-2.3.023c-.826-.785-1.636-1.589-2.418-2.417a1.472,1.472,0,0,1-.031-2.173,1.521,1.521,0,0,1,2.1.13c.264.242.507.506.764.756C903.464,475.738,903.7,475.953,903.982,476.223Z" transform="translate(-178.143 -61.347)" fill="#dcc268"/>
    </g>
  </g>
</svg>
