<svg xmlns="http://www.w3.org/2000/svg" width="40" height="40" viewBox="0 0 40 40">
  <g id="rate-us-icon" transform="translate(-3502 -1267)">
    <rect id="Rectangle_7177" data-name="Rectangle 7177" width="40" height="40" transform="translate(3502 1267)" fill="#fff" opacity="0"/>
    <g id="Group_41054" data-name="Group 41054" transform="translate(2703.984 905.301)">
      <path id="Path_56343" data-name="Path 56343" d="M808.617,393.319c.209-.948.4-1.842.6-2.735.365-1.615.724-3.232,1.111-4.842a.719.719,0,0,0-.253-.825c-1.8-1.562-3.587-3.145-5.384-4.714a1.464,1.464,0,0,1,.846-2.692c2.3-.192,4.605-.424,6.91-.612a1.021,1.021,0,0,0,1.006-.714c.889-2.168,1.825-4.317,2.75-6.471a1.408,1.408,0,0,1,1.552-1.006,1.451,1.451,0,0,1,1.23,1.019c.937,2.206,1.895,4.4,2.821,6.613a.722.722,0,0,0,.678.526c2.111.179,4.22.373,6.33.563.316.029.632.074.948.1a1.442,1.442,0,0,1,.832,2.582q-2.108,1.858-4.221,3.709a4.627,4.627,0,0,1-.64.554,1.648,1.648,0,0,0-.728,2.167c.554,2.038.962,4.116,1.438,6.176a1.472,1.472,0,0,1-2.289,1.671c-2.024-1.221-4.062-2.421-6.079-3.654a.815.815,0,0,0-.987.014c-2.034,1.239-4.082,2.454-6.131,3.669a1.413,1.413,0,0,1-2.046-.349A4.165,4.165,0,0,1,808.617,393.319ZM806.08,379.16c.3.271.519.468.739.661q2.351,2.061,4.705,4.12a1.545,1.545,0,0,1,.568,1.645c-.325,1.353-.62,2.713-.925,4.07-.225,1-.446,1.995-.69,3.084,2.109-1.26,4.129-2.45,6.131-3.672a1.718,1.718,0,0,1,1.974,0c1.851,1.132,3.721,2.233,5.583,3.345.158.094.319.183.535.307-.024-.144-.032-.212-.047-.279-.505-2.215-1-4.434-1.526-6.643a1.746,1.746,0,0,1,.615-1.929c1-.839,1.975-1.713,2.958-2.575.777-.682,1.55-1.368,2.334-2.061-.076-.056-.1-.088-.127-.091-2.3-.215-4.6-.445-6.908-.631a1.665,1.665,0,0,1-1.57-1.109c-.824-1.985-1.681-3.956-2.527-5.932-.085-.2-.186-.391-.315-.661-.132.3-.225.5-.314.712-.846,1.976-1.7,3.949-2.533,5.93a1.488,1.488,0,0,1-1.234,1.027c-1.21.131-2.425.224-3.638.335S807.424,379.036,806.08,379.16Z" transform="translate(0)" fill="#dcc268"/>
    </g>
  </g>
</svg>
