<svg xmlns="http://www.w3.org/2000/svg" width="331" height="475.682" viewBox="0 0 331 475.682">
  <g id="refer-earn-bg" transform="translate(-22 -190)">
    <rect id="Rectangle_7024" data-name="Rectangle 7024" width="331" height="471" rx="16" transform="translate(22 190)" fill="#0c53a6"/>
    <g id="Group_37739" data-name="Group 37739" transform="translate(-50.611 300.136)">
      <path id="Path_30772" data-name="Path 30772" d="M202.582,240.583s-3.014-8.189-18.78-9.158c-10.114-.621-17.167-.129-21.815,1.077-9.776,2.534-15.536,11.682-7.969,20.7C162.023,262.75,200.812,247.589,202.582,240.583Z" transform="translate(-3.862 -15.536)" fill="#fff" fill-rule="evenodd"/>
      <path id="Path_30773" data-name="Path 30773" d="M208.46,240.183s15.939,4.72,43.176,4.2,44.693-2.813,60.41-2.8,25.844,6.122,25.495,17.645-56.26,4.541-56.26,4.541l-7.644-4.193-2.443,2.969s-42.152,12.37-44.174,12.918S199.717,254.981,208.46,240.183Z" transform="translate(-11.098 -16.701)" fill="#fff" fill-rule="evenodd"/>
      <path id="Path_30774" data-name="Path 30774" d="M336.965,242.769c3.878.923,10.713,2.771,15.517,8.126s4.247,7.018,2.955,7.389-18.1-6.65-18.1-6.65S328.838,248.309,336.965,242.769Z" transform="translate(-27.46 -17.035)" fill="#ed9072" fill-rule="evenodd"/>
      <path id="Path_30775" data-name="Path 30775" d="M208.46,240.183s6.854,1.5,12.767,2.5c10.312,24.769,39.874,18.827,58.367.516,12.672-.782,22.885-1.628,32.452-1.622a47.976,47.976,0,0,1,9.392.864c-1.63,1.311-2.357,4.1.812,9.967,3.39,6.275-4.855,10.591-14,13.38-13.667-.365-26.966-2.024-26.966-2.024l-7.644-4.193-2.443,2.969s-42.152,12.37-44.174,12.918S199.717,254.981,208.46,240.183Z" transform="translate(-11.098 -16.701)" fill="#f3e3da" fill-rule="evenodd"/>
      <path id="Path_30776" data-name="Path 30776" d="M286.072,252.088l-4.065-3.612c-16.674,12.438-38.543,34.3-60.041,31.77,0,0-.547,11.618,7.638,15.182s32.789,1.705,38.327-2.043S287.864,257,286.072,252.088Z" transform="translate(-13.076 -17.771)" fill="#1c213c" fill-rule="evenodd"/>
      <path id="Path_30777" data-name="Path 30777" d="M286.072,252.374l-1.749-1.552a20.859,20.859,0,0,0-5.1.063c-4.7,3.649-9.765,7.858-15.079,11.947-.667,22.462-21.755,43.359-24.852,15.1a36.45,36.45,0,0,1-17.326,2.6s-.547,11.618,7.638,15.182,32.789,1.705,38.327-2.043S287.864,257.287,286.072,252.374Z" transform="translate(-13.076 -18.057)" fill="#070d26" fill-rule="evenodd"/>
      <path id="Path_30778" data-name="Path 30778" d="M332.037,397.44a3.342,3.342,0,0,0-2.018-1.548c-10.562-1.013-42.728-6.031-60.484,1.548Z" transform="translate(-19.214 -36.459)" fill="#03061e" fill-rule="evenodd"/>
      <path id="Path_30779" data-name="Path 30779" d="M330.062,215.166l-.892,7.145s-1.252,15.265-1.387,16.918.505,2.269,2.167,3.768c1.967,4.429-6.074,22.175-10.793,22.513s-26.051-3.262-27.45-4.677c-.982-.99,11.376-16.01,10.971-18.679a5.7,5.7,0,0,0,2.613-1.046c4.926-3.937,5.354-15.807,2.41-20.258C305.5,217.527,330.062,215.166,330.062,215.166Z" transform="translate(-22.067 -13.473)" fill="#e37b64" fill-rule="evenodd"/>
      <path id="Path_30780" data-name="Path 30780" d="M283.365,274.846c4.1-2.133,6.169.057,10.032,4.975s7.915,4.8,10.174,6-1.287,43.547-17.13,48.779c-5.861,1.935-9.174-.844-10.947-6.064C272.315,319.164,272.694,280.391,283.365,274.846Z" transform="translate(-19.758 -21.068)" fill="#f5f4f4" fill-rule="evenodd"/>
      <path id="Path_30781" data-name="Path 30781" d="M256.068,378.317c2.279-5.761,6.842-2.385,8.279-35.892,1.516-35.382-.131-96.147,34.195-97.315,0,0-.437.826-1.134,2.355l1.4.2s-4.235,10.4,1.733,14.507,13.439-.183,16.9-3.985a1.888,1.888,0,0,1,1.616-.7q3.662-4.234,8.019-8.508c7.058,1.934,17.814,8.932,17.814,8.932,5.447,3.374,12.1,9.153,12.514,15.674.587,9.254-12.156,40.1-20.027,59.436-8.849,21.74-1.9,35.036,1.583,45.3Z" transform="translate(-17.476 -17.337)" fill="#fffbfa" fill-rule="evenodd"/>
      <path id="Path_30782" data-name="Path 30782" d="M302.37,378.317c.03-1.794.023-3.716-.02-5.783-.395-18.449,2.346-45.871,5.968-67.64s-1.533-30.994-12.07-33.826-15.56,3.027-15.56,3.027A59.894,59.894,0,0,1,277.6,262.86c4.9-10.406,12.324-17.362,23.716-17.75,0,0-.437.826-1.134,2.355l1.4.2s-4.235,10.4,1.733,14.507,13.439-.183,16.9-3.985a1.888,1.888,0,0,1,1.616-.7q3.662-4.234,8.019-8.508c7.058,1.934,17.814,8.932,17.814,8.932,25.677,15.913,2.229,45.314-7.328,68.792-9.244,22.707-1.342,39.313,1.879,51.62Z" transform="translate(-20.255 -17.337)" fill="#e9dfd6" fill-rule="evenodd"/>
      <path id="Path_30783" data-name="Path 30783" d="M300.123,245.414s3.354-1.932,5.932-.541c0,0-7,11.021-.417,17.009s22.083-5.546,25.077-15.118a7.487,7.487,0,0,1,4.921,3.212s-5.978,14.957-21.305,18.511S294.013,256.793,300.123,245.414Z" transform="translate(-22.833 -17.241)" fill="#010518" fill-rule="evenodd"/>
      <path id="Path_30784" data-name="Path 30784" d="M336.981,250.807s-19.091,31.488-26.045,85.443c-2.308,17.92-3.5,31.751-2.655,42.8h40.671c-1.752-22.094-2.547-49.331,9.184-75.89C370.544,275.077,365.126,259.813,336.981,250.807Z" transform="translate(-24.178 -18.072)" fill="#010518" fill-rule="evenodd"/>
      <path id="Path_30785" data-name="Path 30785" d="M294.632,245.57s-9.24,16.672-11.959,51.312c-2.427,30.9-6.8,65.682-9.615,81.494H255.025c3.418-11.508,7.03-26.234,6.926-43.391C261.752,302.134,266.721,247.9,294.632,245.57Z" transform="translate(-17.342 -17.396)" fill="#010518" fill-rule="evenodd"/>
      <path id="Path_30786" data-name="Path 30786" d="M313.428,324.055s21.836-67.109,31.548-70.869c0,0-4.526-3.94-5.493-4.15S318.081,276.3,313.428,324.055Z" transform="translate(-24.877 -17.843)" fill="#fff" fill-rule="evenodd"/>
      <path id="Path_30787" data-name="Path 30787" d="M298.431,245.535c-6.159,29.477-10.166,30.123-14.177,74.955,1.219-8.779.164-34.093,4.139-52.155,1.544-7.022.668-15.7,3.287-20.087C292.926,246.16,294.966,245.043,298.431,245.535Z" transform="translate(-21.113 -17.377)" fill="#fff" fill-rule="evenodd"/>
      <path id="Path_30788" data-name="Path 30788" d="M328.017,374.157a1.878,1.878,0,0,0-3.709.589c.007.044,1.813,11.622,6.665,20.017h4.392C330.074,387.309,328.024,374.2,328.017,374.157Z" transform="translate(-26.278 -33.782)" fill="#fff" fill-rule="evenodd"/>
      <path id="Path_30789" data-name="Path 30789" d="M260.9,373.994a1.684,1.684,0,0,1,3.327.528c-.008.044-1.987,12.745-7.455,20.241h-4.433C258.556,389,260.895,374.039,260.9,373.994Z" transform="translate(-16.996 -33.782)" fill="#fff" fill-rule="evenodd"/>
      <path id="Path_30790" data-name="Path 30790" d="M289.5,161.631l-.318,5.3s1.634,2.413,8.676,2.794,65.076,11.743,65.076,11.743.749.454,1.738-.541-.9-16.867-.9-16.867Z" transform="translate(-21.749 -6.566)" fill="#050a25" fill-rule="evenodd"/>
      <path id="Path_30791" data-name="Path 30791" d="M290.861,180.7a9.9,9.9,0,1,1-11.292,8.275A9.9,9.9,0,0,1,290.861,180.7Z" transform="translate(-20.493 -9.012)" fill="#e37b64" fill-rule="evenodd"/>
      <path id="Path_30792" data-name="Path 30792" d="M373.167,193.628c7.756,1.2,3.869,20.53-8.375,18.643a9.9,9.9,0,0,1-8.273-11.291C357.351,195.578,367.766,192.793,373.167,193.628Z" transform="translate(-30.421 -10.676)" fill="#e37b64" fill-rule="evenodd"/>
      <path id="Path_30793" data-name="Path 30793" d="M330.735,129.4h0a34,34,0,0,1,28.339,38.679l-4.7,30.454A34,34,0,0,1,315.7,226.87h0a34,34,0,0,1-28.34-38.679l4.7-30.453A34.007,34.007,0,0,1,330.735,129.4Z" transform="translate(-21.462 -2.356)" fill="#f4ad85" fill-rule="evenodd"/>
      <path id="Path_30794" data-name="Path 30794" d="M359.907,163.242a33.786,33.786,0,0,1-.31,7.529l.081,16.23c-2.5,7.44-7.123,24.27-11.205,29.721-7.405,9.894-19.324,14.84-32.253,12.846,36.907-1.542,32.391-48.686,21.977-54.341s-33.675-10.2-40.236-9.987c-5.485.177-6.713,4.148-6.968,5.445l1.583-10.252a33.61,33.61,0,0,1,3.471-10.54c6.865.056,31.392,1.055,44.109,3.016s13.459,7.437,19.751,10.332Zm-43.688,66.325" transform="translate(-21.982 -5.052)" fill="#ed9072" fill-rule="evenodd"/>
      <path id="Path_30795" data-name="Path 30795" d="M358.32,156.31c-1.918,5.722.809,27.794,3.412,30.665a39.959,39.959,0,0,1,2.56,12.678s4.462-10.649,7.6-11.277l4.511-12.939-6.755-15.365Z" transform="translate(-30.586 -5.88)" fill="#010518" fill-rule="evenodd"/>
      <path id="Path_30796" data-name="Path 30796" d="M363.7,174.363s19.622-30.823-10.123-40.58c0,0-5.911-17.038-22.632-15.233s-26.832.32-33.115-7.814c0,0-5.225,7.268-1.1,14.8a11.583,11.583,0,0,0-7.477,7.063c-2.282,5.851-7.591,4.841-7.591,4.841a8.359,8.359,0,0,0,7.226,3.123s-4.773,12.594-.679,19.805c0,0,1.528-5.293,13.4-3.3s21.225,4.979,28.25-2.4a13.037,13.037,0,0,1-7.39,6.926s15.342,2.375,20.965-8.46C341.9,168.871,358.84,167.2,363.7,174.363Z" transform="translate(-20.779 0)" fill="#1c213c" fill-rule="evenodd"/>
      <path id="Path_30797" data-name="Path 30797" d="M370.577,144.1a18.477,18.477,0,0,0-2.545-3.143c-10.986-.471-29.931-3.91-38.235-21.108-9.046.667-15.927.1-21.2-2.366C314.384,129.309,332.038,155.763,370.577,144.1Z" transform="translate(-24.254 -0.87)" fill="#2d334f" fill-rule="evenodd"/>
      <path id="Path_30798" data-name="Path 30798" d="M369.748,179.964a46.512,46.512,0,0,0,6.114-16.814c-6.822,3.8-17.071,5.776-24.887-9.009,0,0-5.121,12.237-22.455,13.06,0,0,15.342,2.373,20.968-8.462C347.948,174.471,364.885,172.8,369.748,179.964Z" transform="translate(-26.824 -5.6)" fill="#070d26" fill-rule="evenodd"/>
      <path id="Path_30799" data-name="Path 30799" d="M300.71,182.524h0a3.327,3.327,0,0,1,2.778,3.782l-.656,4.278a3.326,3.326,0,0,1-3.781,2.778h0a3.328,3.328,0,0,1-2.778-3.783l.656-4.279A3.327,3.327,0,0,1,300.71,182.524Z" transform="translate(-22.658 -9.257)" fill="#010518" fill-rule="evenodd"/>
      <path id="Path_30800" data-name="Path 30800" d="M339.384,188.9h0a3.326,3.326,0,0,1,2.778,3.782l-.656,4.279a3.326,3.326,0,0,1-3.781,2.778h0a3.328,3.328,0,0,1-2.778-3.782l.655-4.278A3.328,3.328,0,0,1,339.384,188.9Z" transform="translate(-27.648 -10.08)" fill="#010518" fill-rule="evenodd"/>
      <path id="Path_30801" data-name="Path 30801" d="M298.131,168.408l9.185,1.894a1.806,1.806,0,0,1,1.4,2.131h0a1.808,1.808,0,0,1-2.13,1.4l-9.185-1.894a1.808,1.808,0,0,1-1.4-2.131h0A1.808,1.808,0,0,1,298.131,168.408Z" transform="translate(-22.624 -7.436)" fill="#010518" fill-rule="evenodd"/>
      <path id="Path_30802" data-name="Path 30802" d="M336.7,174.362l9.252,1.545a1.81,1.81,0,0,1,1.482,2.076h0a1.809,1.809,0,0,1-2.076,1.482l-9.251-1.544a1.81,1.81,0,0,1-1.482-2.076h0A1.809,1.809,0,0,1,336.7,174.362Z" transform="translate(-27.609 -8.206)" fill="#010518" fill-rule="evenodd"/>
      <path id="Path_30803" data-name="Path 30803" d="M296,197.295a4.906,4.906,0,1,1-5.593,4.107A4.911,4.911,0,0,1,296,197.295Z" transform="translate(-21.9 -11.16)" fill="#e37b64" fill-rule="evenodd"/>
      <path id="Path_30804" data-name="Path 30804" d="M339.588,204.428A4.906,4.906,0,1,1,334,208.534,4.909,4.909,0,0,1,339.588,204.428Z" transform="translate(-27.523 -12.081)" fill="#e37b64" fill-rule="evenodd"/>
      <path id="Path_30805" data-name="Path 30805" d="M336.578,265.1a.5.5,0,0,1,.856.507c-7.193,12.17-3.6,24.46-.3,35.754,3.244,11.1,6.215,21.264-1.3,29.66a.5.5,0,1,1-.739-.662c7.142-7.985,4.245-17.9,1.083-28.721C332.82,290.148,329.165,277.645,336.578,265.1Z" transform="translate(-27.305 -19.885)" fill="#fff" fill-rule="evenodd"/>
      <path id="Path_30806" data-name="Path 30806" d="M288.962,267.332a.621.621,0,1,1,1.192.347c-.015.054-5.524,19.048-10.58,28.8a28.906,28.906,0,0,0-3.271,11.466,27.178,27.178,0,0,0,1.759,11.561.622.622,0,0,1-1.159.453,28.385,28.385,0,0,1-1.839-12.092,30.093,30.093,0,0,1,3.406-11.957C283.472,286.257,288.945,267.387,288.962,267.332Z" transform="translate(-19.919 -20.146)" fill="#fff" fill-rule="evenodd"/>
      <path id="Path_30807" data-name="Path 30807" d="M279.127,324.545v0a1.585,1.585,0,0,1-.862,2.063l-1.448.593a1.585,1.585,0,0,1-2.064-.861h0a1.585,1.585,0,0,1,.865-2.063l1.448-.594A1.583,1.583,0,0,1,279.127,324.545Z" transform="translate(-19.872 -27.459)" fill="#fff" fill-rule="evenodd"/>
      <path id="Path_30808" data-name="Path 30808" d="M298.609,318.49c-1.016-2.678-.461-4.526-1.755-8.034s-3.971-6.1-5.08-6.464-1.755.739-1.016,3.507-3.231.37-6.925-1.569-7.482-2.309-8.683-.833,1.941,2.956,1.941,2.956-1.108,2.033-.463,2.864,1.664,2.4,1.664,2.4a7.957,7.957,0,0,0,2.215,6.188c2.679,2.678,12.747,6.1,14.777,8.96S298.609,318.49,298.609,318.49Z" transform="translate(-19.903 -24.925)" fill="#f4ad85" fill-rule="evenodd"/>
      <path id="Path_30809" data-name="Path 30809" d="M300.416,319.065c-1.016-2.678-.461-4.526-1.755-8.034a14.2,14.2,0,0,0-1.314-2.652c.862,3.024,1.669,6.233-1.178,11.518a7.033,7.033,0,0,1-7.28,4.069c3.449,1.714,7.072,3.48,8.2,5.075C299.123,331.9,300.416,319.065,300.416,319.065Z" transform="translate(-21.711 -25.499)" fill="#ed9072" fill-rule="evenodd"/>
      <path id="Path_30810" data-name="Path 30810" d="M338.739,339.891h0a1.585,1.585,0,0,1-2.218.287l-1.24-.955a1.587,1.587,0,0,1-.286-2.218h0a1.584,1.584,0,0,1,2.218-.285l1.239.954A1.586,1.586,0,0,1,338.739,339.891Z" transform="translate(-27.617 -29.113)" fill="#fff" fill-rule="evenodd"/>
      <g id="Group_37738" data-name="Group 37738" transform="translate(281.366 195.388)">
        <path id="Path_30811" data-name="Path 30811" d="M321.528,212.627a8.272,8.272,0,0,1-16.152-3.582l.015,0a1.432,1.432,0,0,1,1.7-1.085l13.336,2.958a1.434,1.434,0,0,1,1.087,1.705Z" transform="translate(-305.178 -207.927)" fill="#010518" fill-rule="evenodd"/>
        <path id="Path_30812" data-name="Path 30812" d="M317.493,219.249a8.28,8.28,0,0,1-9.462-1.5,5.15,5.15,0,0,1,5.28-1.955A5.217,5.217,0,0,1,317.493,219.249Z" transform="translate(-305.546 -208.929)" fill="#d64341" fill-rule="evenodd"/>
        <path id="Path_30813" data-name="Path 30813" d="M307.119,207.937l12.535,2.78c-.109,1.43-1.062,2.688-2.062,2.785-1.217.118-10.234-2.128-10.717-2.985A4.922,4.922,0,0,1,307.119,207.937Z" transform="translate(-305.384 -207.929)" fill="#fff" fill-rule="evenodd"/>
      </g>
      <path id="Path_30814" data-name="Path 30814" d="M163.387,390.525a3.342,3.342,0,0,1,2.018-1.548c10.562-1.012,42.728-6.031,60.484,1.548Z" transform="translate(-5.519 -35.567)" fill="#03061e" fill-rule="evenodd"/>
      <path id="Path_30815" data-name="Path 30815" d="M168.894,208.252l.894,7.146s1.25,15.263,1.387,16.917-.5,2.271-2.167,3.768c-1.967,4.429,4.843,6.4,9.561,6.735a20.629,20.629,0,0,1,4.844,1.492c8.268,3.284,10.967,14.036,12.08,12.913.982-.991.383-19.314.788-21.984a5.7,5.7,0,0,1-2.614-1.046c-4.924-3.937-5.352-15.807-2.409-20.258C193.454,210.613,168.894,208.252,168.894,208.252Z" transform="translate(-6.199 -12.581)" fill="#e37b64" fill-rule="evenodd"/>
      <path id="Path_30816" data-name="Path 30816" d="M216.809,267.932c-4.1-2.134-6.171.056-10.033,4.975s-7.914,4.8-10.175,6,1.289,43.548,17.13,48.781c5.862,1.934,9.175-.844,10.948-6.065C227.858,312.249,227.479,273.477,216.809,267.932Z" transform="translate(-9.724 -20.176)" fill="#f5f4f4" fill-rule="evenodd"/>
      <path id="Path_30817" data-name="Path 30817" d="M191.538,239.237c.888,5.684.209,8.554-.255,13.172-.244,2.416-.533,8.812-.533,8.812-2.419-.113-2.521-4.278-7.03-8.27-5.282-4.675-15.122-9.49-19.454-12.871-10.193,3.262-22.326,10.556-26.79,15.77-7.861,9.184-7.2,21.883.713,39.8,2.224,5.035,5.6,11.65,7.2,16.695,6.812,21.56,9.842,45.236,5.27,59.194,16.421,1.427,72.039,11.515,83.808,0-14.653-35.732-.595-82.155-19.942-117.986C207.765,241.037,203.562,240.244,191.538,239.237Z" transform="translate(-1.457 -16.579)" fill="#e53b3b" fill-rule="evenodd"/>
      <path id="Path_30818" data-name="Path 30818" d="M146.268,313.838c.367.948.7,1.867.971,2.739,6.812,21.56,9.842,45.236,5.27,59.194l33.321,2.893s-17.117-6.854-23.166-44.052,1.947-48.2-6.723-62.352a.651.651,0,0,0-.723-.142c-.4.193,5.5,13.122-2.5,27.592A98.072,98.072,0,0,0,146.268,313.838Z" transform="translate(-3.31 -20.813)" fill="#c72a2c" fill-rule="evenodd"/>
      <path id="Path_30819" data-name="Path 30819" d="M194.161,259.46a.5.5,0,0,0-.857.508c7.193,12.173,3.6,24.46.3,35.754-3.244,11.1-6.214,21.265,1.3,29.661a.5.5,0,0,0,.741-.662c-7.144-7.984-4.246-17.9-1.084-28.723C197.918,284.505,201.572,272,194.161,259.46Z" transform="translate(-8.978 -19.157)" fill="#f6ebe1" fill-rule="evenodd"/>
      <path id="Path_30820" data-name="Path 30820" d="M201.827,257.164a.621.621,0,0,0-1.193.348c.016.053,5.523,19.048,10.58,28.8a28.864,28.864,0,0,1,3.271,11.464,27.156,27.156,0,0,1-1.759,11.563.622.622,0,0,0,1.159.453,28.408,28.408,0,0,0,1.841-12.093,30.123,30.123,0,0,0-3.407-11.957C207.315,276.09,201.841,257.22,201.827,257.164Z" transform="translate(-10.321 -18.834)" fill="#f6ebe1" fill-rule="evenodd"/>
      <path id="Path_30821" data-name="Path 30821" d="M213.226,314.378v0a1.585,1.585,0,0,0,.863,2.063l1.448.593a1.583,1.583,0,0,0,2.063-.863h0a1.584,1.584,0,0,0-.862-2.062l-1.448-.594A1.585,1.585,0,0,0,213.226,314.378Z" transform="translate(-11.934 -26.147)" fill="#f6ebe1" fill-rule="evenodd"/>
      <path id="Path_30822" data-name="Path 30822" d="M192.575,334.251h0a1.586,1.586,0,0,0,2.218.287l1.239-.957a1.585,1.585,0,0,0,.286-2.217v0a1.588,1.588,0,0,0-2.218-.285l-1.239.956A1.585,1.585,0,0,0,192.575,334.251Z" transform="translate(-9.242 -28.386)" fill="#f6ebe1" fill-rule="evenodd"/>
      <path id="Path_30823" data-name="Path 30823" d="M215.416,151.456l-10.908,1.283,5.557,24.72,5.333.253Z" transform="translate(-10.824 -5.254)" fill="#070d26" fill-rule="evenodd"/>
      <path id="Path_30824" data-name="Path 30824" d="M209.15,176.217a8.944,8.944,0,1,0,10.276,7.378A8.944,8.944,0,0,0,209.15,176.217Z" transform="translate(-10.456 -8.433)" fill="#e37b64" fill-rule="evenodd"/>
      <path id="Path_30825" data-name="Path 30825" d="M133.548,187.609c-4.571.8-6.126,5.4-3.476,10.274s8.506,8.179,13.078,7.378,6.126-5.4,3.476-10.274S138.119,186.81,133.548,187.609Z" transform="translate(-1.054 -9.903)" fill="#e37b64" fill-rule="evenodd"/>
      <path id="Path_30826" data-name="Path 30826" d="M165.653,130.243h0a30.726,30.726,0,0,0-25.272,35.193l4.509,27.476a30.726,30.726,0,0,0,35.194,25.272h0a30.726,30.726,0,0,0,25.272-35.194l-4.509-27.476A30.726,30.726,0,0,0,165.653,130.243Z" transform="translate(-2.499 -2.465)" fill="#f4ad85" fill-rule="evenodd"/>
      <path id="Path_30827" data-name="Path 30827" d="M153.739,135.67a30.74,30.74,0,0,0-13.359,30.513l4.509,27.479a30.726,30.726,0,0,0,35.195,25.27h0a30.35,30.35,0,0,0,10.518-3.807c-29.537,5.08-36.113-14.487-38.875-31.312s2.489-19.664,8.733-20.688l22.931-3.763s.574-22.728-24.23-23.667C157.231,135.622,155.431,135.613,153.739,135.67Z" transform="translate(-2.498 -3.212)" fill="#ed9072" fill-rule="evenodd"/>
      <path id="Path_30828" data-name="Path 30828" d="M202.448,171.908l-8.362,1.374a1.633,1.633,0,0,0-1.345,1.871h0a1.635,1.635,0,0,0,1.872,1.345l8.363-1.373a1.635,1.635,0,0,0,1.345-1.872h0A1.637,1.637,0,0,0,202.448,171.908Z" transform="translate(-9.303 -7.89)" fill="#010518" fill-rule="evenodd"/>
      <path id="Path_30829" data-name="Path 30829" d="M166.051,177.881l-8.363,1.372a1.635,1.635,0,0,0-1.344,1.873h0a1.633,1.633,0,0,0,1.872,1.344l8.362-1.372a1.633,1.633,0,0,0,1.344-1.873h0A1.634,1.634,0,0,0,166.051,177.881Z" transform="translate(-4.607 -8.66)" fill="#010518" fill-rule="evenodd"/>
      <path id="Path_30830" data-name="Path 30830" d="M174.678,204.585a9.745,9.745,0,0,0,19.232-3.156l-.016,0a1.689,1.689,0,0,0-1.934-1.389l-15.879,2.606a1.689,1.689,0,0,0-1.388,1.933Z" transform="translate(-6.975 -11.519)" fill="#fff" fill-rule="evenodd"/>
      <path id="Path_30831" data-name="Path 30831" d="M204.346,194.225a4.432,4.432,0,1,0,5.092,3.656A4.432,4.432,0,0,0,204.346,194.225Z" transform="translate(-10.324 -10.764)" fill="#e37b64" fill-rule="evenodd"/>
      <path id="Path_30832" data-name="Path 30832" d="M161.142,201.315a4.433,4.433,0,1,0,5.093,3.655A4.431,4.431,0,0,0,161.142,201.315Z" transform="translate(-4.75 -11.679)" fill="#e37b64" fill-rule="evenodd"/>
      <path id="Path_30833" data-name="Path 30833" d="M167.751,192.3a1.208,1.208,0,1,0,2.384-.391,5.825,5.825,0,0,0-11.5,1.887,1.208,1.208,0,0,0,2.384-.393,3.409,3.409,0,1,1,6.728-1.1Z" transform="translate(-4.896 -9.844)" fill="#010518" fill-rule="evenodd"/>
      <path id="Path_30834" data-name="Path 30834" d="M205.649,186.085a1.208,1.208,0,1,0,2.384-.391,5.825,5.825,0,0,0-11.5,1.887,1.208,1.208,0,1,0,2.384-.391,3.409,3.409,0,1,1,6.728-1.1Z" transform="translate(-9.786 -9.041)" fill="#010518" fill-rule="evenodd"/>
      <path id="Path_30835" data-name="Path 30835" d="M144.411,174.6c.6,3.652-1.062,5.37-2.67,7,0,0,1.7,3.345-.2,4.507,0,0-.7-4.269-5.933-2.013,0,0-19.592-22.57-2.559-33.594-.044.638,9.347-2.534,13.431,6.5C140.731,157.944,143.157,166.954,144.411,174.6Z" transform="translate(-0.707 -5.124)" fill="#1c213c" fill-rule="evenodd"/>
      <path id="Path_30836" data-name="Path 30836" d="M144.412,175.358c.6,3.652-1.062,5.37-2.67,7,0,0,3.916,15.9,2.019,17.068,0,0-4.026-5.009-8.15-14.573,0,0-14.589-16.81-7.638-28.5-.024,9.62,9.879,15.6,15.182,11.571C143.49,170.335,144.011,172.916,144.412,175.358Z" transform="translate(-0.708 -5.885)" fill="#070d26" fill-rule="evenodd"/>
      <path id="Path_30837" data-name="Path 30837" d="M146.063,169.582l2.425-1.083s-1.59-6.892,6.481-7.777c0,0,7.111-6.1,15.343-1.233,0,0-7.921-6.5-8.356-6.907s-9.029,1.851-9.029,1.851-5.04,4.622-5.186,5.016S145.815,163.137,146.063,169.582Z" transform="translate(-3.281 -5.393)" fill="#010518" fill-rule="evenodd"/>
      <path id="Path_30838" data-name="Path 30838" d="M139.69,174.379c3.179,8.968,14.35,6.95,9.649-5.584-1.528-4.071-5.959-18.891,4.057-13.076,0,0,.3-15.038,15.415,1.242,17.786,19.158,49.713,8.5,40.369-20.765-4.989-15.63-26.417-24.767-46.4-21.91s-33.328,16.99-27.578,37.173Z" transform="translate(-1.709 -0.391)" fill="#1c213c" fill-rule="evenodd"/>
      <path id="Path_30839" data-name="Path 30839" d="M209.844,137.065c-1.927-5.769-6.1-10.639-11.606-14.33-.243,3.772-2.328,7.622-8.908,9.517-13.311,3.835-35.039.117-46.8-7.372a27,27,0,0,0-2.776,3.1c10.06,5.612,31.542,16.035,52.834,16.388C200.954,144.51,206.37,141.468,209.844,137.065Z" transform="translate(-2.469 -1.548)" fill="#2d334f" fill-rule="evenodd"/>
      <path id="Path_30840" data-name="Path 30840" d="M140.232,178.34c3.179,8.968,14.35,6.95,9.649-5.584-.882-2.351-2.732-8.287-2.21-11.763h0c-1.145,5.993-5.476,7.571-9.621,6.214l2.182,11.132Zm13.706-18.66c-.179-22.344,21.344-7.383,39.638-3.848,18.26,3.528,17.225-11.311,17.221-11.365,5.839,32.231-27.061,31.949-41.445,16.455C154.239,144.642,153.938,159.68,153.938,159.68Z" transform="translate(-2.25 -4.352)" fill="#070d26" fill-rule="evenodd"/>
      <path id="Path_30841" data-name="Path 30841" d="M360.417,270.806s7.87,16.541.188,43.776-15.585,44.255-25.84,46.442-39.285-31.776-41.9-38.934c4.624-3.563,8.529-7.51,8.368-10.9-.159-3.353,31.206,28.925,32.081,24.9,4.466-20.55,3.427-49.446,8.967-60.7C346.589,266.626,352.812,261.066,360.417,270.806Z" transform="translate(-22.223 -19.989)" fill="#1c213c" fill-rule="evenodd"/>
      <path id="Path_30842" data-name="Path 30842" d="M132.828,263.216c-1.577,3.523-5.834,14.242-8.5,32.458-3.318,22.7-5.64,41.853-1.508,50.459s27.554,24.5,27.554,24.5l16.867.952s-21.264-20.043-26.153-35.231c-.685-2.128,4.857-21.274,11.4-38.429C162.864,270.73,140.09,247,132.828,263.216Z" transform="translate(0 -18.989)" fill="#fff" fill-rule="evenodd"/>
      <path id="Path_30843" data-name="Path 30843" d="M120.612,343.5c.029,5.782.672,10.461,2.213,13.672,4.132,8.605,27.554,24.5,27.554,24.5l16.867.952c-17.872-2.362-35.54-18.825-41.389-24.829C121.432,353.257,120.7,346.513,120.612,343.5Z" transform="translate(0 -30.031)" fill="#f3e3da" fill-rule="evenodd"/>
      <path id="Path_30844" data-name="Path 30844" d="M176.725,389.155c-13.526,4.115,46.166,17.974,65.868-.492,0,0,.4-.425.077-1.867s-1.73-5.809-2.884-6.886-3.311-6.31-3.7-11.467-1.306-5.928-3.615-6c-2.192-.073-20.607,4.082-35.242,3.321-3.016-.156-9.423-.332-11.244,5.145C184.831,374.39,187.759,387.432,176.725,389.155Z" transform="translate(-6.985 -32.474)" fill="#fff" fill-rule="evenodd"/>
      <path id="Path_30845" data-name="Path 30845" d="M176.725,390.112c-13.526,4.115,46.166,17.974,65.868-.492,0,0,.4-.425.077-1.867-.308-1.36-1.575-5.323-2.686-6.673-7.813,6.45-26.7,3.533-41.872-1.345-8.107-2.605-10.648-6.511-11.092-9.88a7.107,7.107,0,0,0-1.03,2.008C184.831,375.347,187.759,388.389,176.725,390.112Z" transform="translate(-6.985 -33.431)" fill="#f3e3da" fill-rule="evenodd"/>
      <path id="Path_30846" data-name="Path 30846" d="M164.348,232.329c-1.441.732-8.96,4.915-.649,7.634.287.093,1.815,2.494,2.123,2.586,1.108-.427,7.56.69,8.635.346-5.815-2.2-2.89-4.3-4.734-11.408a44.676,44.676,0,0,0-5.163.738Z" transform="translate(-5.063 -15.579)" fill="#f3e3da" fill-rule="evenodd"/>
      <path id="Path_30847" data-name="Path 30847" d="M158.541,234.694l4.839-2.361c.486-.238-10.217,4.678-.861,7.739,8.1,2.652,25.907,4,31.618,21.444,0,0-.078.885-.423.655-3.031-2.02-13.721-21.41-43.008-15.564,0,0,.522-1.029.585-1.125l1.247-1.7Z" transform="translate(-3.883 -15.687)" fill="#fff" fill-rule="evenodd"/>
      <path id="Path_30848" data-name="Path 30848" d="M201.267,236.2l-2.013,2.423s2.124.888.721,8.274a42.968,42.968,0,0,0-.557,13.93,2.193,2.193,0,0,0,.9,1.534,9.071,9.071,0,0,1,2.083-8.538c3.608-3.97,7.063-9.3,5.647-14Z" transform="translate(-10.126 -16.187)" fill="#fff" fill-rule="evenodd"/>
      <path id="Path_30849" data-name="Path 30849" d="M148.009,320.84c.509-1.642,1.053-3.352,1.627-5.106,1.682-5.141,3.615-10.658,5.647-15.983a37.658,37.658,0,0,0,.139-27.491.651.651,0,0,0-.723-.142c-.4.193,5.5,13.122-2.5,27.592-1.257,2.27-2.456,4.639-3.56,7.056-1.064,2.328-2.04,4.7-2.891,7.071-3.9,10.85-5.2,21.638-.5,27.847a33.145,33.145,0,0,1-1.368-3.5C143.484,336.938,145.2,329.9,148.009,320.84Z" transform="translate(-2.791 -20.813)" fill="#f3e3da" fill-rule="evenodd"/>
      <path id="Path_30850" data-name="Path 30850" d="M184.877,373.885c-.192,4.964-1.96,11.124-5.924,6.7.986,1.43.344,2.5,1.28,3.591.2.233,2.016.632,2.214.849.066.076.135.15.2.223l1.541.158c.105-.185.2-.373.3-.563q.12-.244.228-.5c1.97-4.554,1.087-10.508,1.813-12.695a6.7,6.7,0,0,1,2.5-3.443S185.069,368.92,184.877,373.885Z" transform="translate(-7.527 -33.218)" fill="#921e23" fill-rule="evenodd"/>
      <path id="Path_30851" data-name="Path 30851" d="M338.44,247.655c4.526,5.08,7.112,9.144,8.867,7.111s-.462-6.648-3.233-8.588S338.44,247.655,338.44,247.655Z" transform="translate(-28.104 -17.398)" fill="#ed9072" fill-rule="evenodd"/>
    </g>
    <g id="ticket-refern-earn" transform="translate(89.385 274.448)">
      <path id="Path_30740" data-name="Path 30740" d="M263.678,219.165H77.919l-5.735,10.1s35.33-4.286,98.614-4.286c61.338,0,98.614,4.286,98.614,4.286Z" transform="translate(-72.184 -140.453)" fill="#767272" opacity="0.3" style="mix-blend-mode: multiply;isolation: isolate"/>
      <g id="Group_37733" data-name="Group 37733" transform="translate(0.978 0)">
        <path id="Path_30741" data-name="Path 30741" d="M267.751,52.48h.071V49.667H73.948V52.48h.071a3.545,3.545,0,0,1,3.8,3.224,3.545,3.545,0,0,1-3.8,3.223h-.071v3.482h.071a3.267,3.267,0,1,1,0,6.447h-.071v3.481h.071a3.267,3.267,0,1,1,0,6.447h-.071v2.85c4.051,1.093,6.987,4.309,6.987,8.11S78,96.759,73.948,97.852v3.366h.071a3.267,3.267,0,1,1,0,6.447h-.071v3.482h.071a3.267,3.267,0,1,1,0,6.447h-.071v3.482h.071a3.267,3.267,0,1,1,0,6.447h-.071v2.3H267.822v-2.3h-.071a3.267,3.267,0,1,1,0-6.447h.071v-3.482h-.071a3.267,3.267,0,1,1,0-6.447h.071v-3.482h-.071a3.267,3.267,0,1,1,0-6.447h.071V97.852c-4.051-1.093-6.987-4.309-6.987-8.109s2.936-7.017,6.987-8.11v-2.85h-.071a3.267,3.267,0,1,1,0-6.447h.071V68.855h-.071a3.267,3.267,0,1,1,0-6.447h.071V58.927h-.071a3.545,3.545,0,0,1-3.8-3.223A3.545,3.545,0,0,1,267.751,52.48Z" transform="translate(-74.311 -49.667)" fill="#f3f3f3"/>
      </g>
    </g>
    <g id="Group_37737" data-name="Group 37737" transform="translate(-31.068 105.096)">
      <path id="Path_30760" data-name="Path 30760" d="M88.1,183.889a4.826,4.826,0,1,0,4.826,4.826A4.826,4.826,0,0,0,88.1,183.889Z" transform="translate(-19 -35)" fill="#fff"/>
      <path id="Path_30761" data-name="Path 30761" d="M342.983,365.441a4.826,4.826,0,1,0,4.826,4.827A4.827,4.827,0,0,0,342.983,365.441Z" transform="translate(-54 -93)" fill="#fff"/>
      <path id="Path_30762" data-name="Path 30762" d="M328.077,133.029a4.827,4.827,0,1,0,4.825,4.827A4.827,4.827,0,0,0,328.077,133.029Z" transform="translate(25 -6)" fill="#fff"/>
      <path id="Path_30763" data-name="Path 30763" d="M180.219,404.982a4.827,4.827,0,1,0,4.826,4.827A4.827,4.827,0,0,0,180.219,404.982Z" transform="translate(9 -92)" fill="#fff"/>
      <path id="Path_30764" data-name="Path 30764" d="M320.838,223.052a2.413,2.413,0,1,0,2.412,2.413A2.413,2.413,0,0,0,320.838,223.052Z" transform="translate(41 -11)" fill="#fff"/>
      <path id="Path_30765" data-name="Path 30765" d="M107.892,389.687A2.412,2.412,0,1,0,110.3,392.1,2.412,2.412,0,0,0,107.892,389.687Z" transform="translate(9 -63)" fill="#fff"/>
      <path id="Path_30766" data-name="Path 30766" d="M55.481,351.767A2.413,2.413,0,1,0,57.9,354.18,2.414,2.414,0,0,0,55.481,351.767Z" transform="translate(6 -39)" fill="#fff"/>
      <path id="Path_30767" data-name="Path 30767" d="M196.169,101.3a2.413,2.413,0,1,0,2.414,2.413A2.412,2.412,0,0,0,196.169,101.3Z" transform="translate(11 21)" fill="#fff"/>
      <path id="Path_30768" data-name="Path 30768" d="M179.578,150.876l-4.146-.6-1.854-3.757a2.112,2.112,0,0,0-3.786,0l-1.854,3.757-4.146.6a2.11,2.11,0,0,0-1.169,3.6l3,2.925-.708,4.129a2.11,2.11,0,0,0,3.062,2.225l3.708-1.95,3.708,1.95a2.11,2.11,0,0,0,3.062-2.225l-.708-4.129,3-2.925A2.11,2.11,0,0,0,179.578,150.876Z" transform="translate(112.085 -37.043)" fill="#fdcb46"/>
      <path id="Path_30769" data-name="Path 30769" d="M171.591,148.363l-2.264-.329-1.012-2.052a1.153,1.153,0,0,0-2.067,0l-1.012,2.052-2.264.329a1.152,1.152,0,0,0-.638,1.965l1.638,1.6-.387,2.255a1.152,1.152,0,0,0,1.672,1.215l2.025-1.065,2.025,1.065a1.152,1.152,0,0,0,1.672-1.215l-.387-2.255,1.638-1.6A1.152,1.152,0,0,0,171.591,148.363Z" transform="translate(161.489 167.192)" fill="#fdcb46"/>
      <path id="Path_30770" data-name="Path 30770" d="M171.591,148.363l-2.264-.329-1.012-2.052a1.153,1.153,0,0,0-2.067,0l-1.012,2.052-2.264.329a1.152,1.152,0,0,0-.638,1.965l1.638,1.6-.387,2.255a1.152,1.152,0,0,0,1.672,1.215l2.025-1.065,2.025,1.065a1.152,1.152,0,0,0,1.672-1.215l-.387-2.255,1.638-1.6A1.152,1.152,0,0,0,171.591,148.363Z" transform="translate(-42.511 137.192)" fill="#fdcb46"/>
      <path id="Path_30771" data-name="Path 30771" d="M171.591,148.363l-2.264-.329-1.012-2.052a1.153,1.153,0,0,0-2.067,0l-1.012,2.052-2.264.329a1.152,1.152,0,0,0-.638,1.965l1.638,1.6-.387,2.255a1.152,1.152,0,0,0,1.672,1.215l2.025-1.065,2.025,1.065a1.152,1.152,0,0,0,1.672-1.215l-.387-2.255,1.638-1.6A1.152,1.152,0,0,0,171.591,148.363Z" transform="translate(-58.511 -23.808)" fill="#fdcb46"/>
    </g>
    <g id="Group_38427" data-name="Group 38427" transform="translate(58 215)" opacity="0.13">
      <path id="Path_30742" data-name="Path 30742" d="M405.232,196.367a13.356,13.356,0,1,0,13.356,13.356A13.356,13.356,0,0,0,405.232,196.367Z" transform="translate(-411.076 -194.854)"/>
      <path id="Path_30743" data-name="Path 30743" d="M310.558,0a37.031,37.031,0,1,0,72.931,0Z" transform="translate(-192.989 -25)"/>
      <path id="Path_30745" data-name="Path 30745" d="M233.2,339.981A37.023,37.023,0,0,0,209.56,405.5H256.85A37.03,37.03,0,0,0,233.2,339.981Z" transform="translate(-132.289 -22.97)"/>
      <circle id="Ellipse_481" data-name="Ellipse 481" cx="17.72" cy="17.72" r="17.72" transform="translate(-12.825 134.152) rotate(-9.247)"/>
      <path id="Path_30747" data-name="Path 30747" d="M79.495,409.461a13.356,13.356,0,1,0,13.356,13.356A13.356,13.356,0,0,0,79.495,409.461Z" transform="translate(-41.74 -186.405)"/>
      <path id="Path_30748" data-name="Path 30748" d="M669.966,283.275a13.356,13.356,0,1,0,13.357,13.356A13.356,13.356,0,0,0,669.966,283.275Z" transform="translate(-393.677 -276.177)"/>
      <path id="Path_37573" data-name="Path 37573" d="M669.966,283.275a13.356,13.356,0,1,0,13.357,13.356A13.356,13.356,0,0,0,669.966,283.275Z" transform="translate(-409.677 -107.5)"/>
    </g>
  </g>
</svg>
