<svg xmlns="http://www.w3.org/2000/svg" width="30" height="30" viewBox="0 0 30 30">
  <g id="referral-icon" transform="translate(-1146 -1270)">
    <rect id="Rectangle_7175" data-name="Rectangle 7175" width="30" height="30" transform="translate(1146 1270)" fill="#fff" opacity="0"/>
    <g id="Group_41044" data-name="Group 41044" transform="translate(1304.229 1393.053)">
      <path id="Path_41160" data-name="Path 41160" d="M-149.285,33.523a4.524,4.524,0,0,1,2.266,3.089,9.32,9.32,0,0,1,.1,1.853.69.69,0,0,1-.758.711q-3.83.014-7.661,0c-.506,0-.767-.316-.8-.842a4.834,4.834,0,0,1,2.311-4.756c.025-.016.035-.056.052-.084a3.05,3.05,0,0,1,.245-4.3,3.016,3.016,0,0,1,4-.015C-148.246,30.33-148.143,31.926-149.285,33.523Zm-5.312,4.113h6.166a3.092,3.092,0,0,0-3.108-3.173A3.1,3.1,0,0,0-154.6,37.636Zm3.083-4.689a1.507,1.507,0,0,0,1.526-1.486,1.565,1.565,0,0,0-1.547-1.54,1.52,1.52,0,0,0-1.482,1.534A1.471,1.471,0,0,0-151.514,32.947Z" transform="translate(0 -134.316)" fill="#818ea1"/>
      <path id="Path_41161" data-name="Path 41161" d="M15.2,33.529a4.485,4.485,0,0,1,2.206,2.856,10.152,10.152,0,0,1,.173,2.094.692.692,0,0,1-.762.708q-3.83.013-7.661,0c-.524,0-.767-.31-.8-.9a4.817,4.817,0,0,1,2.389-4.752,3.138,3.138,0,0,1-.705-2.817,2.987,2.987,0,0,1,1.166-1.714,3.032,3.032,0,0,1,3.916.318A3.063,3.063,0,0,1,15.2,33.529Zm.863,4.122a3.081,3.081,0,1,0-6.16,0Zm-3.093-4.692a1.471,1.471,0,0,0,1.509-1.486,1.519,1.519,0,0,0-1.475-1.54,1.564,1.564,0,0,0-1.553,1.533A1.507,1.507,0,0,0,12.974,32.959Z" transform="translate(-147.893 -134.328)" fill="#818ea1"/>
      <path id="Path_41162" data-name="Path 41162" d="M-71.56-115.863c-1.11-1.634-1.035-3.191.183-4.307a3.021,3.021,0,0,1,4.006-.085c1.277,1.07,1.383,2.644.289,4.394a4.531,4.531,0,0,1,2.226,2.975,9.671,9.671,0,0,1,.144,1.9.748.748,0,0,1-.821.774q-3.783.019-7.565,0c-.565,0-.83-.325-.858-.9A4.855,4.855,0,0,1-71.56-115.863Zm5.318,4.128a3.094,3.094,0,0,0-3.31-3.18,3.049,3.049,0,0,0-2.831,3.18Zm-1.572-6.229a1.514,1.514,0,0,0-1.518-1.5,1.514,1.514,0,0,0-1.509,1.505,1.514,1.514,0,0,0,1.543,1.522A1.515,1.515,0,0,0-67.815-117.965Z" transform="translate(-73.885 0)" fill="#818ea1"/>
      <path id="Path_41163" data-name="Path 41163" d="M-63.935,70.581c-1.157-.217-2.263-.393-3.354-.641a.721.721,0,0,1-.514-1.118.781.781,0,0,1,.98-.3,9.273,9.273,0,0,0,3.686.373,19.308,19.308,0,0,0,2.22-.413c.5-.108.891.044,1.029.452a.742.742,0,0,1-.611.978C-61.64,70.167-62.793,70.363-63.935,70.581Z" transform="translate(-79.315 -170.301)" fill="#818ea1"/>
      <path id="Path_41164" data-name="Path 41164" d="M-130.007-54.622a9.937,9.937,0,0,1,1.382-3.688,24.744,24.744,0,0,1,1.872-2.425.713.713,0,0,1,1.11-.084.768.768,0,0,1-.043,1.126,10.05,10.05,0,0,0-2.828,5.291.741.741,0,0,1-.881.635A.753.753,0,0,1-130.007-54.622Z" transform="translate(-23.502 -53.877)" fill="#818ea1"/>
      <path id="Path_41165" data-name="Path 41165" d="M33.172-54.433a.709.709,0,0,1-.639.761.725.725,0,0,1-.857-.6c-.106-.37-.161-.755-.277-1.122a9.812,9.812,0,0,0-2.468-4.1.874.874,0,0,1-.321-.895.723.723,0,0,1,1.272-.271A19.886,19.886,0,0,1,31.611-58.5,10.68,10.68,0,0,1,33.139-54.7C33.156-54.615,33.16-54.531,33.172-54.433Z" transform="translate(-166.081 -53.974)" fill="#818ea1"/>
    </g>
  </g>
</svg>
