<svg xmlns="http://www.w3.org/2000/svg" width="60" height="60" viewBox="0 0 60 60">
  <g id="refer-friend-icon" transform="translate(-3027 -1259)">
    <rect id="Rectangle_7176" data-name="Rectangle 7176" width="60" height="60" transform="translate(3027 1259)" fill="#fff" opacity="0"/>
    <path id="Path_56415" data-name="Path 56415" d="M858.711,411.592v-1.373c1.94-.748,2.2-1.136,2.2-3.248q0-1.671-.011-3.341a1.994,1.994,0,0,0-.071-.308h-2.964l3.438-4.478c-.4-.032-.648-.069-.9-.069-2.971,0-5.941-.026-8.911.023a2.33,2.33,0,0,0-1.265.569c-.734.584-1.346,1.329-2.109,1.863-.539.377-.769.8-.543,1.332a1.576,1.576,0,0,0,.9.708c1.689.566,3.417,1.02,5.1,1.613a4.656,4.656,0,0,1,3.494,4.866c.041,1.985.008,3.972.008,6.022H846.354v-1.442h4.316v-3.288h1.482v3.22h3.339c0-1.771.047-3.482-.015-5.189a2.787,2.787,0,0,0-2.03-2.635c-1.779-.616-3.584-1.157-5.391-1.685a.819.819,0,0,0-.7.294c-2.028,3.118-5.168,3-6.989-.4-.279.069-.593.133-.9.226-1.578.476-3.159.941-4.728,1.444a3.215,3.215,0,0,0-2.38,3.262c-.033,1.544-.007,3.09-.007,4.693h3.36V411.05h1.468v3.239h4.41v1.493H830.659c.127-2.514.14-5,.415-7.462.2-1.816,1.542-2.864,3.211-3.422,1.722-.576,3.478-1.052,5.2-1.64a1.786,1.786,0,0,0,.911-.844c.24-.49-.095-.814-.542-1.12a7.984,7.984,0,0,1-3.864-7.213c.1-3.1.021-6.21.021-9.316v-1.2h9.915c0-.5-.006-.887,0-1.276.061-3.1,0-6.21.233-9.3a8.624,8.624,0,0,1,2.746-5.213l1.046.968c-.193.257-.362.5-.547.728a8.21,8.21,0,0,0-1.956,5.195c-.021,2.8-.008,5.6,0,8.4a3.508,3.508,0,0,0,.088.533l4.192.379c-2.729-2.509-2.709-5.549-2.454-8.755.262-.023.548-.071.836-.071,4.658,0,9.316.022,13.974-.018.872-.008,1.091.28,1.053,1.1-.08,1.708.213,3.468-.617,5.067-.459.885-1.055,1.7-1.648,2.636l3.937-.328c.016-.351.042-.674.042-1,0-2.5-.015-5,.006-7.493.033-3.956-2.064-6.609-5.313-8.441a8.772,8.772,0,0,0-9.484.4c-.314.2-.613.414-.988.669l-.929-1.14c3.238-2.462,6.692-3.388,10.556-1.978,4.116,1.5,7.948,5.555,7.72,10.981-.116,2.763-.02,5.535-.02,8.3v1.063l-7.587.676c-.261.795.012,1.155.748,1.357q2.48.683,4.927,1.483c2.594.853,3.671,2.267,3.764,4.986.059,1.713.011,3.43.011,5.241h-2.209l3.467,4.534H868.5c0,1.435.008,2.745,0,4.054-.022,2.859-1.451,4.273-4.311,4.276C862.371,411.593,860.558,411.592,858.711,411.592ZM868.8,397.15c0-1.174.019-2.282,0-3.39-.045-2.211-.76-3.184-2.858-3.853-1.632-.52-3.291-.961-4.914-1.507a1.1,1.1,0,0,0-1.322.36c-.812.875-1.657,1.719-2.52,2.607-1-1.006-1.881-1.887-2.754-2.777-.726-.74-1.383-.008-2.04.139-.222.05-.471.582-.476.9-.039,2.5-.022,5.011-.022,7.593h.79c3.17,0,6.34,0,9.51-.014a.864.864,0,0,0,.6-.268c.649-.8,1.427-1.547,1.173-2.75a4.179,4.179,0,0,1,.034-1h1.336C866.067,397.18,866.237,397.38,868.8,397.15ZM837.568,394.6c-.341,3.059,3.208,6.637,6.648,6.486,2.745-.12,6.535-3.11,6.182-6.771-.057-.588-.28-.7-.791-.768-2.5-.342-5.007-.679-7.494-1.116a4.684,4.684,0,0,0-3.463.467C837.886,393.351,837.26,393.705,837.568,394.6ZM850.85,376.75A6.489,6.489,0,0,0,854.226,384a5.727,5.727,0,0,0,6.707-.558,6.356,6.356,0,0,0,2.514-6.691Zm-13.243,8.311v6.67a8.967,8.967,0,0,1,1.34-.617,6.51,6.51,0,0,1,2.013-.35c1.1.064,2.2.322,3.294.484,2.013.3,4.028.583,6.108.883,0-1.22.076-2.335-.017-3.437a4.037,4.037,0,0,0-3.662-3.608C843.69,384.99,840.691,385.061,837.607,385.061Zm24.232,25.069c.933,0,1.775.017,2.616,0a2.328,2.328,0,0,0,2.53-2.6c.007-1.881,0-3.762,0-5.655l1.477-.093-3.76-4.838-3.726,4.827,1.468.13C862.207,404.631,862.9,407.364,861.839,410.13Zm-19.926-7.658c-.142,1.128-.282,2.3.968,2.993a2.043,2.043,0,0,0,2.452-.214,2.42,2.42,0,0,0,.634-2.779Zm15.233-13.13c.679-1.252,2.314-1.6,2.063-3.156h-4.124C854.84,387.762,856.471,388.085,857.146,389.342Zm-6.622-3.948,1.115,1.885c2.028-.461,2.028-.461,1.84-1.616Z" transform="translate(2205.915 899.122)" fill="#dabc64"/>
  </g>
</svg>
