<svg xmlns="http://www.w3.org/2000/svg" width="60" height="60" viewBox="0 0 60 60">
  <g id="shop-home-icon" transform="translate(-3027 -1259)">
    <rect id="Rectangle_7176" data-name="Rectangle 7176" width="60" height="60" transform="translate(3027 1259)" fill="#fff" opacity="0"/>
    <g id="Group_41050" data-name="Group 41050" transform="translate(2229.911 900)">
      <path id="Path_56372" data-name="Path 56372" d="M808.716,367c.4.088.809.155,1.2.269a4.886,4.886,0,0,1,3.409,3.349c.219.646.45,1.29.61,1.951.138.568.438.713,1,.72,6.961.087,13.922.2,20.883.31q6.247.094,12.494.178c1.232.019,1.581.472,1.3,1.677-.789,3.347-1.565,6.7-2.38,10.037a5.911,5.911,0,0,1-5.618,4.743c-5.408.545-10.81,1.146-16.215,1.721-1.654.176-3.313.312-4.96.538a1.327,1.327,0,0,0-.872.658c-1,2.175.331,4.168,2.785,4.173,6.337.015,12.675.005,19.012.005.268,0,.536,0,.8,0,.926.016,1.387.352,1.359,1.033-.036.873-.663,1.056-1.366,1.057-6.694.007-13.39.078-20.083-.026-3.872-.06-5.987-3.609-4.455-7.2a2.189,2.189,0,0,0,.067-1.683c-2.118-6.324-4.2-12.658-6.3-18.989a2.942,2.942,0,0,0-3.224-2.355c-.833,0-1.667-.016-2.5,0-.691.017-1.367-.011-1.551-.839-.178-.8.456-1.06,1.025-1.33Zm38.672,8.872-32.51-.484,4.941,14.96c1.342-.126,2.525-.227,3.707-.351q9.083-.953,18.166-1.912a3.6,3.6,0,0,0,3.448-2.944c.5-1.984.966-3.975,1.447-5.962C846.842,378.122,847.1,377.064,847.387,375.872Z" transform="translate(0 0)" fill="#dabc64"/>
      <path id="Path_56373" data-name="Path 56373" d="M863.633,572.747a5.487,5.487,0,0,1-3.542-1.823,4.752,4.752,0,1,1,8.392-3.224,4.669,4.669,0,0,1-4.085,4.9,2.3,2.3,0,0,0-.407.148Zm.147-7.5a2.615,2.615,0,0,0-2.659,2.637,2.634,2.634,0,1,0,2.659-2.637Z" transform="translate(-45.097 -161.11)" fill="#dabc64"/>
      <path id="Path_56374" data-name="Path 56374" d="M976.551,572.727a5.461,5.461,0,0,1-3.721-2.005,4.757,4.757,0,1,1,8.552-3.077,4.69,4.69,0,0,1-4.142,4.939,4.237,4.237,0,0,0-.51.143Zm-2.532-4.82a2.623,2.623,0,1,0,2.615-2.677A2.635,2.635,0,0,0,974.019,567.907Z" transform="translate(-137.84 -161.09)" fill="#dabc64"/>
    </g>
  </g>
</svg>
