<svg xmlns="http://www.w3.org/2000/svg" width="40" height="40" viewBox="0 0 40 40">
  <g id="terms-condition-icon" transform="translate(-3502 -1267)">
    <rect id="Rectangle_7177" data-name="Rectangle 7177" width="40" height="40" transform="translate(3502 1267)" fill="#fff" opacity="0"/>
    <g id="Group_41055" data-name="Group 41055" transform="translate(2676.395 908.081)">
      <path id="Path_36904" data-name="Path 36904" d="M834.607,378.534q0-5.813,0-11.626c0-2,.989-2.98,2.985-2.98,3.742,0,7.484.008,11.225-.009a1.642,1.642,0,0,1,1.266.524q3.165,3.193,6.358,6.358a1.526,1.526,0,0,1,.483,1.166q-.014,9.221-.009,18.442a2.592,2.592,0,0,1-2.887,2.847q-8.276,0-16.552,0a2.6,2.6,0,0,1-2.869-2.866Q834.6,384.462,834.607,378.534Zm13.747-12.86c-.231-.011-.4-.026-.566-.026q-5.182,0-10.364,0c-.827,0-1.122.292-1.122,1.147q0,11.8,0,23.591c0,.877.291,1.151,1.177,1.151h16.434c1.081,0,1.315-.228,1.315-1.3q0-8.532,0-17.064v-.653c-1.486,0-2.9.014-4.306,0a2.52,2.52,0,0,1-2.549-2.42c-.028-.418-.017-.839-.018-1.259C848.352,367.791,848.354,366.746,848.354,365.674Zm5.374,5.126-3.667-3.658c0,.88-.023,1.866.01,2.849a.777.777,0,0,0,.806.8C851.861,370.816,852.847,370.8,853.728,370.8Z" transform="translate(0 0)" fill="#dcc268"/>
      <path id="Path_36905" data-name="Path 36905" d="M885.674,469.98q2.458,0,4.916,0c.682,0,1.059.3,1.073.834.014.56-.373.882-1.083.882q-4.915,0-9.831,0c-.681,0-1.059-.3-1.073-.834-.015-.56.372-.881,1.082-.882Q883.217,469.976,885.674,469.98Z" transform="translate(-39.907 -93.909)" fill="#dcc268"/>
      <path id="Path_36906" data-name="Path 36906" d="M885.636,501.7q-2.429,0-4.858,0c-.72,0-1.11-.3-1.113-.854s.387-.863,1.1-.863q4.888,0,9.774,0c.721,0,1.11.3,1.113.853s-.388.863-1.1.864Q888.094,501.7,885.636,501.7Z" transform="translate(-39.897 -120.47)" fill="#dcc268"/>
      <path id="Path_36907" data-name="Path 36907" d="M885.672,531.691q-2.458,0-4.916,0c-.707,0-1.094-.326-1.077-.887.016-.534.392-.829,1.077-.829q4.916,0,9.831,0c.708,0,1.094.325,1.077.887-.016.533-.393.829-1.078.83Q888.129,531.695,885.672,531.691Z" transform="translate(-39.909 -147.028)" fill="#dcc268"/>
      <path id="Path_36908" data-name="Path 36908" d="M883.95,559.963c1.085,0,2.17,0,3.256,0,.658,0,1.036.339,1.021.884-.015.518-.384.83-1.017.832q-3.256.007-6.511,0c-.658,0-1.036-.339-1.021-.884.014-.518.383-.827,1.017-.831C881.779,559.958,882.864,559.963,883.95,559.963Z" transform="translate(-39.908 -173.581)" fill="#dcc268"/>
    </g>
  </g>
</svg>
