<svg xmlns="http://www.w3.org/2000/svg" width="30" height="30" viewBox="0 0 30 30">
  <g id="upload-camera-icon" transform="translate(-1146 -1270)">
    <rect id="Rectangle_7175" data-name="Rectangle 7175" width="30" height="30" transform="translate(1146 1270)" fill="#fff" opacity="0"/>
    <g id="Group_41043" data-name="Group 41043" transform="translate(1075.268 1296.354)">
      <path id="Path_56411" data-name="Path 56411" d="M85.655-.729c-2.447,0-4.894.022-7.341,0-2.881-.029-4.307-1.435-4.327-4.273q-.034-4.68,0-9.36c.019-2.791,1.342-4.2,4.126-4.268A1.9,1.9,0,0,0,80.2-19.966a2.97,2.97,0,0,1,3.159-2c1.346.008,2.694.054,4.037-.012,1.895-.093,3.313.419,4.083,2.363A2.305,2.305,0,0,0,93.2-18.7c3.027.249,4.26,1.494,4.277,4.551.009,1.591.057,3.185-.041,4.77-.026.428-.518.827-.8,1.239-.33-.42-.915-.822-.946-1.264-.115-1.644-.08-3.3-.041-4.952.04-1.686-.745-2.551-2.419-2.47a3.352,3.352,0,0,1-3.6-2.21,2.391,2.391,0,0,0-1.986-1.039c-1.949.27-4.439-1.25-5.761.918-1.007,1.652-2.022,2.408-3.89,2.343-1.491-.053-2.193.824-2.185,2.32.019,3.181.025,6.363,0,9.544-.014,1.721.858,2.413,2.5,2.408q7.434-.023,14.867,0a2.294,2.294,0,0,0,2.5-1.682c.137-.4.785-.628,1.2-.935.166.526.547,1.091.461,1.571A3.712,3.712,0,0,1,93.547-.743C90.917-.694,88.285-.731,85.655-.729Z" fill="#818fa1"/>
      <path id="Path_56412" data-name="Path 56412" d="M90.716.558a5.534,5.534,0,0,1,5.617-5.694A5.732,5.732,0,0,1,102.111.478a5.9,5.9,0,0,1-5.692,5.772A5.708,5.708,0,0,1,90.716.558Zm5.573-3.889A3.779,3.779,0,0,0,92.5.515a3.921,3.921,0,0,0,3.97,3.918,4.086,4.086,0,0,0,3.846-3.9A3.951,3.951,0,0,0,96.289-3.331Z" transform="translate(-10.597 -10.666)" fill="#818fa1"/>
    </g>
  </g>
</svg>
