<svg xmlns="http://www.w3.org/2000/svg" width="30" height="30" viewBox="0 0 30 30">
  <g id="upload-icon" transform="translate(-1146 -1270)">
    <rect id="Rectangle_7175" data-name="Rectangle 7175" width="30" height="30" transform="translate(1146 1270)" fill="#fff" opacity="0"/>
    <g id="Group_41042" data-name="Group 41042" transform="translate(1200.006 1335.006)">
      <path id="Path_56407" data-name="Path 56407" d="M-29.05-51.522l-1.843-.375v-1.14c0-2.13-.011-4.26.008-6.39,0-.548-.2-.744-.745-.743q-9.412.017-18.825,0c-.519,0-.715.192-.714.713q.016,7.11,0,14.219c0,.546.195.747.742.745,3.838-.014,7.676-.007,11.514-.007h.623l.377,1.843H-51.275c-1.248,0-1.731-.489-1.731-1.748q0-7.945,0-15.889c0-1.217.494-1.711,1.71-1.712h20.552c1.183,0,1.693.5,1.694,1.67q0,4.116,0,8.232Z" transform="translate(0 0)" fill="#818fa1"/>
      <path id="Path_56408" data-name="Path 56408" d="M-17.606.582H-29.569a14.568,14.568,0,0,0-.014-1.929,4.516,4.516,0,0,1,1.6-4.378,8.963,8.963,0,0,0,.911-1.036,1.5,1.5,0,0,1,2.633.046c.683.852,1.376,1.7,2.118,2.612.761-.916,1.5-1.808,2.243-2.7.71-.856,1.41-1.721,2.131-2.568a1.416,1.416,0,0,1,2.353.013c1.02,1.221,2.03,2.45,3.084,3.725A7.089,7.089,0,0,0-17.606.582Z" transform="translate(-20.672 -46.023)" fill="#818fa1"/>
      <path id="Path_56409" data-name="Path 56409" d="M88.978,33.992A5.988,5.988,0,1,1,82.995,40,6.014,6.014,0,0,1,88.978,33.992ZM87.6,39.978c0,1.158,0,2.248,0,3.337,0,.751.061.808.832.811h1.035c.866,0,.9-.03.9-.921,0-1.066,0-2.133,0-3.225h.477a3.938,3.938,0,0,0,.4,0c.458-.048.642-.382.379-.763-.728-1.056-1.476-2.1-2.234-3.135a.455.455,0,0,0-.813,0q-1.136,1.554-2.234,3.135c-.264.382-.082.722.377.76C86.984,40,87.253,39.978,87.6,39.978Z" transform="translate(-120.336 -84.941)" fill="#818fa1"/>
      <path id="Path_56410" data-name="Path 56410" d="M19.915-30.1a1.84,1.84,0,0,1,1.8-1.852,1.881,1.881,0,0,1,1.869,1.864,1.857,1.857,0,0,1-1.853,1.816A1.822,1.822,0,0,1,19.915-30.1Z" transform="translate(-64.522 -26.596)" fill="#818fa1"/>
    </g>
  </g>
</svg>
