<svg xmlns="http://www.w3.org/2000/svg" width="30" height="30" viewBox="0 0 30 30">
  <g id="user-icon" transform="translate(-1148 -1270)">
    <rect id="Rectangle_7175" data-name="Rectangle 7175" width="30" height="30" transform="translate(1148 1270)" fill="#fff" opacity="0"/>
    <g id="Group_41036" data-name="Group 41036" transform="translate(1281.2 1404)">
      <path id="Path_37187" data-name="Path 37187" d="M-109.38-108.458a8.877,8.877,0,0,0-2.064-5.752,8.778,8.778,0,0,0-5.868-3.254,8.773,8.773,0,0,0-7.247,2.314,8.884,8.884,0,0,0-2.91,5.727c-.037.319-.036.643-.052.965h-1.68c.172-4.971,2.686-8.284,7.178-10.216l-.157-.124a6.129,6.129,0,0,1-2.479-4.817,5.959,5.959,0,0,1,1.011-3.56,6.055,6.055,0,0,1,3.5-2.578c.415-.116.847-.167,1.272-.248h.84c.337.057.681.088,1.009.176a6,6,0,0,1,4.544,4.408,6,6,0,0,1-1.843,6.286c-.18.17-.382.317-.589.487.062.028.1.05.148.067a10.539,10.539,0,0,1,3.834,2.43,10.555,10.555,0,0,1,3.058,5.813c.072.412.113.829.168,1.243v.631Zm-9.077-10.772a4.553,4.553,0,0,0,4.541-4.526,4.554,4.554,0,0,0-4.528-4.56,4.553,4.553,0,0,0-4.541,4.526A4.554,4.554,0,0,0-118.457-119.23Z" fill="#818ea1"/>
    </g>
  </g>
</svg>
